<mxfile host="65bd71144e" scale="1" border="20">
    <diagram name="mlops-code-maturity-level-1-part-0" id="Dg3Lw9tu1t9dLLiXHJVm">
        <mxGraphModel dx="1092" dy="-1278" grid="0" gridSize="10" guides="1" tooltips="1" connect="1" arrows="1" fold="1" page="0" pageScale="1" pageWidth="1100" pageHeight="850" background="#ffffff" math="0" shadow="0">
            <root>
                <mxCell id="sOep82PyB1NGChh_XDzF-0"/>
                <mxCell id="sOep82PyB1NGChh_XDzF-1" parent="sOep82PyB1NGChh_XDzF-0"/>
                <mxCell id="5" value="&lt;span style=&quot;color: rgb(0, 0, 0);&quot;&gt;Data&lt;/span&gt;&lt;div&gt;&lt;span style=&quot;color: rgb(0, 0, 0);&quot;&gt;&amp;nbsp;analysis&lt;/span&gt;&lt;/div&gt;" style="rounded=0;whiteSpace=wrap;html=1;" parent="sOep82PyB1NGChh_XDzF-1" vertex="1">
                    <mxGeometry x="-127" y="1929" width="120" height="60" as="geometry"/>
                </mxCell>
                <mxCell id="23" value="&lt;font style=&quot;color: rgb(0, 0, 0);&quot;&gt;Model&amp;nbsp;&lt;/font&gt;&lt;div&gt;&lt;font style=&quot;color: rgb(0, 0, 0);&quot;&gt;serving&lt;/font&gt;&lt;/div&gt;" style="rounded=0;whiteSpace=wrap;html=1;" parent="sOep82PyB1NGChh_XDzF-1" vertex="1">
                    <mxGeometry x="941" y="1929" width="120" height="60" as="geometry"/>
                </mxCell>
                <mxCell id="KJkTsJxCRm8jF_Di1Zu--23" value="Orchestrated expirement" style="fillColor=none;strokeColor=#5A6C86;dashed=1;verticalAlign=top;fontStyle=0;fontColor=#5A6C86;whiteSpace=wrap;html=1;align=left;" parent="sOep82PyB1NGChh_XDzF-1" vertex="1">
                    <mxGeometry x="37" y="1870" width="550" height="173" as="geometry"/>
                </mxCell>
                <mxCell id="1" value="&lt;span style=&quot;color: rgb(0, 0, 0);&quot;&gt;Model&lt;/span&gt;&lt;div&gt;&lt;span style=&quot;color: rgb(0, 0, 0);&quot;&gt;&amp;nbsp;analysis&lt;/span&gt;&lt;/div&gt;" style="rounded=0;whiteSpace=wrap;html=1;" parent="sOep82PyB1NGChh_XDzF-1" vertex="1">
                    <mxGeometry x="406" y="1758" width="120" height="60" as="geometry"/>
                </mxCell>
                <mxCell id="40" value="" style="fillColor=none;strokeColor=#5A6C86;dashed=1;verticalAlign=top;fontStyle=0;fontColor=#5A6C86;whiteSpace=wrap;html=1;" parent="sOep82PyB1NGChh_XDzF-1" vertex="1">
                    <mxGeometry x="787" y="1892" width="389" height="338" as="geometry"/>
                </mxCell>
                <mxCell id="KJkTsJxCRm8jF_Di1Zu--21" style="edgeStyle=none;html=1;exitX=1;exitY=0.5;exitDx=0;exitDy=0;entryX=0;entryY=0.5;entryDx=0;entryDy=0;" parent="sOep82PyB1NGChh_XDzF-1" source="KJkTsJxCRm8jF_Di1Zu--16" target="KJkTsJxCRm8jF_Di1Zu--18" edge="1">
                    <mxGeometry relative="1" as="geometry"/>
                </mxCell>
                <mxCell id="KJkTsJxCRm8jF_Di1Zu--16" value="&lt;span style=&quot;background-color: light-dark(#ffffff, var(--ge-dark-color, #121212));&quot;&gt;&lt;font style=&quot;color: rgb(0, 0, 0);&quot;&gt;Data validation&amp;nbsp;&lt;/font&gt;&lt;/span&gt;&lt;div&gt;&lt;font style=&quot;background-color: light-dark(#ffffff, var(--ge-dark-color, #121212)); color: rgb(0, 0, 0);&quot;&gt;and&amp;nbsp;preparation&lt;/font&gt;&lt;/div&gt;" style="rounded=0;whiteSpace=wrap;html=1;" parent="sOep82PyB1NGChh_XDzF-1" vertex="1">
                    <mxGeometry x="74" y="1929" width="120" height="60" as="geometry"/>
                </mxCell>
                <mxCell id="KJkTsJxCRm8jF_Di1Zu--22" style="edgeStyle=none;html=1;entryX=0;entryY=0.5;entryDx=0;entryDy=0;" parent="sOep82PyB1NGChh_XDzF-1" source="KJkTsJxCRm8jF_Di1Zu--18" target="KJkTsJxCRm8jF_Di1Zu--20" edge="1">
                    <mxGeometry relative="1" as="geometry"/>
                </mxCell>
                <mxCell id="KJkTsJxCRm8jF_Di1Zu--18" value="&lt;div&gt;&lt;span style=&quot;color: rgb(0, 0, 0);&quot;&gt;Model&lt;/span&gt;&lt;/div&gt;&lt;div&gt;&lt;span style=&quot;color: rgb(0, 0, 0);&quot;&gt;training&lt;/span&gt;&lt;/div&gt;" style="rounded=0;whiteSpace=wrap;html=1;" parent="sOep82PyB1NGChh_XDzF-1" vertex="1">
                    <mxGeometry x="240" y="1929" width="120" height="60" as="geometry"/>
                </mxCell>
                <mxCell id="2" style="edgeStyle=none;html=1;" parent="sOep82PyB1NGChh_XDzF-1" source="KJkTsJxCRm8jF_Di1Zu--20" target="1" edge="1">
                    <mxGeometry relative="1" as="geometry"/>
                </mxCell>
                <mxCell id="20" style="edgeStyle=none;html=1;entryX=0;entryY=0.5;entryDx=0;entryDy=0;" parent="sOep82PyB1NGChh_XDzF-1" source="KJkTsJxCRm8jF_Di1Zu--20" target="19" edge="1">
                    <mxGeometry relative="1" as="geometry"/>
                </mxCell>
                <mxCell id="KJkTsJxCRm8jF_Di1Zu--20" value="&lt;span style=&quot;color: rgb(0, 0, 0);&quot;&gt;Model evaluation&amp;nbsp;&lt;/span&gt;&lt;div&gt;&lt;span style=&quot;color: rgb(0, 0, 0);&quot;&gt;and validation&lt;br&gt;&lt;/span&gt;&lt;/div&gt;" style="rounded=0;whiteSpace=wrap;html=1;" parent="sOep82PyB1NGChh_XDzF-1" vertex="1">
                    <mxGeometry x="406" y="1929" width="120" height="60" as="geometry"/>
                </mxCell>
                <mxCell id="8" style="edgeStyle=none;html=1;exitX=0;exitY=0.5;exitDx=0;exitDy=0;entryX=0.5;entryY=0;entryDx=0;entryDy=0;" parent="sOep82PyB1NGChh_XDzF-1" source="1" target="KJkTsJxCRm8jF_Di1Zu--18" edge="1">
                    <mxGeometry relative="1" as="geometry">
                        <Array as="points">
                            <mxPoint x="300" y="1788"/>
                        </Array>
                    </mxGeometry>
                </mxCell>
                <mxCell id="6" style="edgeStyle=none;html=1;entryX=0;entryY=0.5;entryDx=0;entryDy=0;" parent="sOep82PyB1NGChh_XDzF-1" source="5" target="KJkTsJxCRm8jF_Di1Zu--23" edge="1">
                    <mxGeometry relative="1" as="geometry"/>
                </mxCell>
                <mxCell id="17" style="edgeStyle=none;html=1;entryX=0.5;entryY=0;entryDx=0;entryDy=0;" parent="sOep82PyB1NGChh_XDzF-1" source="5" target="16" edge="1">
                    <mxGeometry relative="1" as="geometry"/>
                </mxCell>
                <mxCell id="16" value="Feature store" style="shape=datastore;whiteSpace=wrap;html=1;" parent="sOep82PyB1NGChh_XDzF-1" vertex="1">
                    <mxGeometry x="-99" y="2081" width="66" height="139" as="geometry"/>
                </mxCell>
                <mxCell id="19" value="&lt;font style=&quot;color: rgb(0, 0, 0);&quot;&gt;Trained&lt;/font&gt;&lt;div&gt;&lt;font style=&quot;color: rgb(0, 0, 0);&quot;&gt;model&lt;/font&gt;&lt;/div&gt;" style="rounded=0;whiteSpace=wrap;html=1;" parent="sOep82PyB1NGChh_XDzF-1" vertex="1">
                    <mxGeometry x="642" y="1929" width="120" height="60" as="geometry"/>
                </mxCell>
                <mxCell id="24" style="edgeStyle=none;html=1;exitX=0.855;exitY=0;exitDx=0;exitDy=4.35;exitPerimeter=0;entryX=0;entryY=0.5;entryDx=0;entryDy=0;" parent="sOep82PyB1NGChh_XDzF-1" source="21" target="23" edge="1">
                    <mxGeometry relative="1" as="geometry">
                        <Array as="points">
                            <mxPoint x="888" y="1958"/>
                        </Array>
                    </mxGeometry>
                </mxCell>
                <mxCell id="21" value="&lt;font style=&quot;color: rgb(0, 0, 0);&quot;&gt;Model&lt;/font&gt;&lt;div&gt;&lt;font style=&quot;color: rgb(0, 0, 0);&quot;&gt;registery&lt;/font&gt;&lt;/div&gt;" style="shape=cylinder3;whiteSpace=wrap;html=1;boundedLbl=1;backgroundOutline=1;size=15;" parent="sOep82PyB1NGChh_XDzF-1" vertex="1">
                    <mxGeometry x="802" y="2002" width="100" height="64" as="geometry"/>
                </mxCell>
                <mxCell id="22" style="edgeStyle=none;html=1;entryX=0.145;entryY=0;entryDx=0;entryDy=4.35;entryPerimeter=0;" parent="sOep82PyB1NGChh_XDzF-1" source="19" target="21" edge="1">
                    <mxGeometry relative="1" as="geometry">
                        <Array as="points">
                            <mxPoint x="815" y="1959"/>
                        </Array>
                        <mxPoint x="848" y="2034" as="targetPoint"/>
                    </mxGeometry>
                </mxCell>
                <mxCell id="26" style="edgeStyle=none;html=1;entryX=0.5;entryY=0;entryDx=0;entryDy=0;" parent="sOep82PyB1NGChh_XDzF-1" source="23" target="25" edge="1">
                    <mxGeometry relative="1" as="geometry"/>
                </mxCell>
                <mxCell id="25" value="Prediction Service" style="rounded=0;whiteSpace=wrap;html=1;" parent="sOep82PyB1NGChh_XDzF-1" vertex="1">
                    <mxGeometry x="941" y="2134" width="120" height="60" as="geometry"/>
                </mxCell>
                <mxCell id="31" value="" style="sketch=0;outlineConnect=0;fontColor=#232F3E;gradientColor=none;fillColor=#7AA116;strokeColor=none;dashed=0;verticalLabelPosition=bottom;verticalAlign=top;align=center;html=1;fontSize=12;fontStyle=0;aspect=fixed;pointerEvents=1;shape=mxgraph.aws4.bucket;" parent="sOep82PyB1NGChh_XDzF-1" vertex="1">
                    <mxGeometry x="-76.57999999999997" y="2192" width="21.15" height="22" as="geometry"/>
                </mxCell>
                <mxCell id="52" value="" style="shape=image;verticalLabelPosition=bottom;verticalAlign=top;imageAspect=0;aspect=fixed;image=data:image/png,iVBORw0KGgoAAAANSUhEUgAAAgAAAAIACAMAAADDpiTIAAAAV1BMVEVMaXEAl4cCl4cCl4kEl4cClYkClYcElYcAj48El4cAlYsCl4kClYcCl4kEl4kEl4kElYkElYkClYkCl4kEl4kClYkCl4kEl4sClYkCl4kEl4kClYkEl4mtLhB+AAAAHHRSTlMAIKHxQO9ggRDBMN/hUL/Rz5GxcH6frz5uXo9O0/0UAAAAAAlwSFlzAAALEwAACxMBAJqcGAAAET1JREFUeNrtndt2qzoMRQ0DMLfkAA0tbfz/33nG7mXvXtI2EANa0tJjn+poMm3JxjhnJOqH6XQ8duH3OB7H0+ND4hhKEv94Go95mB/d8el0JgiYUT48nE7j8RhixPH4dJoeav6qGPEwjXHy/iWa+9O55A8s2vfTfVg5uidCINP5j6dFM/0iCMaJawM5kZyfNkv9h6XB0yMp2F/6T13YMZqnM3OwZ/absHvkIxnYw/sPj6OA7L8ycH96eGBOtkv+dJ8HeXH/yPJgi+X+YxekRj6yW7RynMcgO5qJlcGKa748AETzRA+sMfE/NQEmyED0ZV8XwKI5cS6Ituy7D5BxZFkQIbIxD7DBsuDWeOwCeHTUwHL3n/KgIPIxYy6XLPzGoCaaR+Zz7tR/DKqimTgTmJr6L8wEJyJw5dQ/NUFlEAFDKz8iwPQTgQVzv/L0E4Gf098EE0EETKefCJhPPxH42vYxln4ioLrrdz0CzP2fnr/R9HOP4KXwH4PpaA6283/Kg/U4Gj46ZnHtx6XAv8n/nsl/ic7kiZGJ9v8XT+ZKQstr/4uLwYyPv/G4NySBumO+LywGrVSEychkW5bAiYm2LAHa37YEuPgzLYGSrR/TEqjZ+TXdE5iYWsuNQep/1u5ATf3vG206tLuuBSfqf89I//zTA9eCVvXfPv/bfue1oJppAK/5U0gAIAQl00AB1/zJX+x7x5ZAjADc+vEv/3nGaiDC9I/Y+0/EABDyAjv/GWLvP3VyAAjhidXfTgIQAkA4wi4EQF/6SJ0sAGAXAgno1n8iDYCQQ+4O1aBb/6kTB8BbYwKr+kfdh0kkAoC3FITNf+pEAhBGdn+2FoAsAEJXMv/bCkAYAEAElMCvfSVyAYApB0vgk9+pEwxAyCEISJBP/ieiAYAgoEY++Z862QAAtISg8/9RABIBEN8Sws5/6uQDIJsA7Px/EoBQACQTAJ7/1EEAIJcA8Px/FoBYAKQSgJ7/1KEAIJMA9Px/EYBgACQSAJ//1AEBII8A+Px/FYBoAKQRUMLn3zssAIKonmAJf/NPXqIBIGlfAD//lwTgykACrOQ/v3jYIpCAq0LB3R/eAQIQGhlnhBRc/HlZAOIBkHFKTMPFr5cFIB8ACQQUQa0AAADYnwAN+f9OAAgA7P2+QBYUCwACgNCzAbyWADAA2LMpXKq4+rt12ADs2BTWcfV7gQ7Abg0hHV/++F4AKADs1RDyQbkAYADYpxgsgnYB4ACwRzFY5+oFAATA9sVg2egXABIAYesvzWj58GehBYCNS4E+GBAAFADbLgSVLAB/66FgjWXkAnB2VE4RAOGOC8DITVRlw+ERsJkCgAMg32YZcBeMCAAOgNBtsgAIVgSAB8D3O9tcACyZMjWOiQuA6wWACMDqG4NqOgDXPCyIoxrZAbgyUqcSgJU3BTo9AkiUApAnK+bfB0sCwAQgHFkBRhIAKAAr1oKdLQGgAhBqTgBRBAALQMcJIIoAYAFYaV+wsyYAXABWqQQ0TQBXHqHEHeAKlUCiKP/XbpsCDzH+C4NHRQBcWycZYNzgIYAZPw7yIO8jbwLnBgUADUDkjeF7iwLABiDqxvAhWBSAszJOS6eAZi2PwAcarxnQ2xQAOABXtjuviExT/ltnBoBo60BNPeBZHRL0sUbaFCqsCsCZot1GC2DeT2JpwWtjE2ieAPABiHFxSGJXAAoACLeXgqldAWgA4OZSUNMu8OxFkYYhZxTAv6icPQCOFMDypyFQAUfLAtABwE0KyEwLQAcAN70saFsASgBoKIClk6HN2ocC0AZAQwEsXA1rGfodBbBIAGoAyCmAZW/Mqhl8QQEs6omrGX1DASSmAVikgNS8ABQBsEABCQWgCIAFCqAAVAHQUAC2AZitAApAGQAzFaDrKHBCAOZ2Qj0FoA2AeecCNAlg+eH4YFYBql4GWv6adDCrgI4C0AfADAVkFIBGAIarBz5QABoBuLoaSigAnQCkBptAN70fG2wqwOaVcCYASM01gW57QV4dAOGqn6OhANQCcM3xUE13ArYlAfgQlbEa8MY7cvQBkNuqAVtHAGbXAXcUgGYAfv9JOgpAMwBHSzNAQQDmzwE9BaAbgN5OE6AgAPPrgJoCUA7AL8+FohngQAAWLAP1zACVIwDzl4GKZoCMACxYBvYUgH4AGhMzQEYAvo3awGHQKALQCkBq4CxYRgCWtAJyCsACAN/OAQcKwAYAvfYaIJIA1ALQaa8BEgKw5AdS0wWK9sVMtQAcdJ8FSgjAokXAQAFYAaBTXQQmBODXKBUvAeIJQDEAmeIlQEIAli0CUgrADgCd3i5AQgCW/UxKlgDeEYBlv5OOJUCU76VbAKBR+kZQVAFoBuBLMzChAGwBkKqcAeIKQDUAjcYZILIAVAPwqRmYUADWAMj0HQaKLQDdANzpuxkstgBU3Zn+y6+lYSu4jS0AV2kGoFI31MIRgMVlgIIioHUEYFZoW+4UBGB5GVBTAPYAuNNVBRYEYGakqqrANQSgHIBG1UjXEICmC3MuRaJoDbiKAHR9PfGnhwZ/DZgRgFsWAfB7wdUq+Xd1FS1kLwJSCmCbqLPiP4mLgI4C2CwkbbwftKwBMyAAJFVcXsndUEgCELWyfPuUaEEBbBiCmguNjmoHSwCimm46+oBYAigF/nTYbwUOjkuAG8sANR1thCpQ1DlDr6ARnGIJIBX442UUwHatQInr5zsKYLM4StwN8BTAViFOtvDvBFAAt0WJ3gagACI0AnIKwKoAXgCgAMwK4LkRAPxmeE8BRAAAtw0Q/XVwcwJ4foRwAfBYApC45VIhtwHABCDy1AU0ABRAnFZgSgGYFcBzK7CiAMwKABkACiBWLzinAOwK4E8rkAIwLABcACiAWABgHghrHQUQJQrQRmBBAcQyaUYBGBZA8JjvhVEA8QDwFIBhAYACQAFEiwERAAogXlSIe0EUQEwAKgrAsAAgAaAAbANQUQC2AcgogIjRwF0RRwHEDUcBWBYAHgBgApDfZXEUwIpR5gSAAiAAFAABoAAIAAVAAG4N3glpHICEAjANQEoB2AaAArANAAWwCgAVBWBZAEAAUADGAaAAbANAARgHgAJYCQCQL2T3FMBKAGD8q2D3QeAIoAUBwFMA60SF8b9SAOsBkFEAhgUAAgAFYBwACmDF9kpCARgWwJ9niwIwLAAIACiAFePOuVb6/1hQAOtFJv+yaLD7ILAEgAAABbDqVoCTvhtEAawNgKcA7ArgP/EfD6cAVm4ESv9sHAWwaoj/bmBFAazfYxNepVAAa/++FIBZAbwA8B8FYFUA4fnfrigAqwJ4AUDuddE1BbDFEyb2/04pgE0AEHuZZUIBbFEFim0EeApgm5+4lNumpgA2qbJYAhoVwNtvLLIObCmA9eP1sN0gdZuCAtiiDSAU3gMFsHp0r//8gUsAmwJ4u3izJgAmBfCv0CYAJgUQzm//v8Qy4J4C2K7VKvJgcDueTg+vkVAAK0T+dwDnYCa6AwXwFv922xM7AKyxwwAqgPetlpYA2BPA+xPXAwGwJ4D32+2eANgTQP5uDBkBsCeA9ycuSwJgTgAff4mcAFgTwMdea0UArAkglATAtAC6D+PoCYA1AXw8dF8QAGMC+PTifU0AjAng81sXOQGwJYDPh25TAmBLAOOnoRwIgCkBfL17hwCYEsDXFy8HAmBJAF/fuykIgCUBjF9xJgCGBHDp+r2OANgRwKW7FzwBsCOAS6/engmAHQGMFwaUEQAzArh8Ay8BMCOAy9cvVQTAigC6i2OaTAAwUgDf3b5h4/2gigJ491qwwW5wRQH8vRrGWdwRrCiAvzeDfImcAJgQwPTduFICYEEA39/BmxEACwLovh9ZTgAMCGD6fmgpAdAvgJ9uYT8QAP0C6H4aHAHQL4C7nwY3EADtAvj5OxwFAdAugJ9/gJIAaBfALx/jHQiAbgHk5c/jKwiAbgH89im2kgCoFsDvl3APBECzAH7/Es+ZAGgWwBUn4loCoFcA13yM0xMAvb/NNV/jLQmAXgFc9R2WkQBoFcB1H2NMCIBWAUzXDTQlADoF8FsX0IQCKsMCSK8daksAVJZH9bVDHQmARgFcP/SaAGgUwIxvcVYEQJ8A2hmjPRMAfQIo5gy3JQDaBJDPGm9BALQJYObNGC0B0CWAUFojPioA+D9Hag/5iAAo+DUSe8xHBMCeAPQqoKIAbCugMimA0Sb2kQCwKQCtClgAwB38oAertW8cABr4QWdWu19RACgsQq9XAZVBAdQLAVCpgMqeANKl+VepgMqeAJLFAGhUQGVOALfcj1625gEwLQCN5wIqrgBsnwuoKIBZcbYNAL4Abv5ETmUaAHgB5OWtAGSWAaAA9F0aVJkSQHt7/l2SmwUAXwBFBACUdYMqSwLoYuRfWTeosiSALAoAukrBypAA4nwiT1kpWBkSQBILgNokAPACiPWdbOdcrweA3owA2jIeAIrWgd6MADIXMc7mAIAXwOCixmANAHQB5GVcANT0A70RARxc5LizBQC6AAYXPTpLAKALIPYEoKgZ4E0I4OxWCG8HAHQBDG6V6MwAAC6ANSYANZOANyCAg1spvBEAwAUwuNWiMwEAuADWmgCeJ4HcAgDgAji7FWMyAAC4AHq3agz6AcAWQFuuCwD8G+NeuQBqt3IctAPQKBec9dNBXrUAuvXz78pONQBH6Aow2QAA8FrQa34V8uA2iYNiAKAFkLqNolcLALQA1q4AdbSEvV4B1JvlH/mEoFcrgMltGAedACALYHCbxqQRAGQBdOW2AMB+Y97rFEBeb5x/2H6Q1ymAwm0eoAtBr1IA3u0QmbKfClgAqdslCl0A4ApgdDtFrwkAXAFsXgBAlwJenQDy/fKPWAp4bQLYvgD8QECrBQBYARRu14A7HOCVCWDn/OMR4HUJwLvdo9Dwi6EKIHWOBMQAAFQAo3MkIAYAGZ9/M+0Ar0cAOzaAPseIDUDC/NtxgNdytkFU/oEc4JUIQFj+cZ4ir0MA4vIP4wCvQgAC84+yMeQ1CEBi/lEI8AoEIDP/IM+SxxeA2PxDrAM8vAAE5x/hcfLoAhCdfwAHeHABCM+//CdqwhaA+PyLv082gxZAJT//0neHM2QBpA4iChgASqz8jw4kJJ8TzICmq0/RO0cCogKAde1p4YAi6RAAQBJADpV/58pBPgBIAtj3/R9NDYEMUgAtXv6lFgMZogC60iHGORcNAI4AUgcadSsZABgBTA42ykouACivs+SZQ45eLAAgL7Z3tcOOQphp3/4vkLtOh9Khh7CFwNu/VUHk3zsFIWshgCQA8OlfZsflIH676m9UpdMSmZzf+/mrChlC/nunKAS9M9BkyQlB/2enK8C/Nkf9a5oG2PxjNcDmj/VqQPLqr3Rao26ZXjPF/+VpYGSG1fd+AQ8JsPjbUgIp82z28X+JZGCqrT7+nAfMP/6v8wAl8HmPInO24syK0Ejt/60EuDugv/X3y2KQveGXxZ93VoPzwJ+Nv8QZDm+9HmgLZztsLwVyXzrzkaRMv/GoK6bfeGQV028dgY7pNx5Fy/QTAaafCDD9REBv24fpvwIBtRWB+a6f7aKQ6Z+DgLoDIx3Tb7lBXGXM6PxtIq9lPZgy/YbXg3maMJE37BOlOfjUz7rv1pmg6HAf/pr5s6uBduLDH1EDaKuBngu/2HUhUFEwcOZfZyroW4B5f+KzvyYDk+gl4XBmitafC4ohF/rws+LfKs7SJoO86vnwbyyCScqGUdefuebbJ7J+9xXBMNH7+3YIzv1uLYJ25KMvpTZIu83n/IKPvrD5YCMK2sFnfPClTgiZr/I1n3t/5nMvvz7I/Bgbg67yE597sCnh7Mfq5nZBNfgp41MP7YPC+6GqZj7wVe+njF19ZQuEVxae44MbXv82eF9ktp73/wFm9NNDANs+0QAAAABJRU5ErkJggg==" parent="sOep82PyB1NGChh_XDzF-1" vertex="1">
                    <mxGeometry x="1034" y="1961" width="26" height="26" as="geometry"/>
                </mxCell>
                <mxCell id="56" style="shape=image;editableCssRules=.*;image=data:image/svg+xml,PHN2ZyB2aWV3Qm94PSIwIDAgMjQgMjQiIHhtbG5zPSJodHRwOi8vd3d3LnczLm9yZy8yMDAwL3N2ZyI+PHN0eWxlPip7ZmlsbDojMTNBREM3fTwvc3R5bGU+PHBhdGggZD0iTTAgNC45MzVhLjI5NS4yOTUgMCAwIDEgLjA5LS4yMjMuMjU2LjI1NiAwIDAgMSAuMjAxLS4wOTJoMy45MjFjMS42MDguMTIyIDIuODA4LjU4MiAzLjkxMiAxLjcxNiAxLjExIDEuMTM1IDEuNTUxIDIuNDIyIDEuNjkyIDQuMDc4LjEzNSAxLjU5NC0uNTE2IDIuOTc0LTEuNjIgNC4xMDhhNS40MiA1LjQyIDAgMCAxLTEuODE4IDEuMjggNS4zMTYgNS4zMTYgMCAwIDEtMi4xNjYuNDMxSC4yOTJhLjI4LjI4IDAgMCAxLS4yMDItLjA5Mi4zMTUuMzE1IDAgMCAxLS4wNjktLjEwNC4zMjIuMzIyIDAgMCAxLS4wMi0uMTIzVjQuOTM1Wm0yLjUwOCA4Ljg0SDQuMDVjLjkgMCAxLjY1LS4zMjYgMi4yNDQtLjk3M2EzLjQwMyAzLjQwMyAwIDAgMCAuODkxLTIuMzljMC0uOTQyLS4zLTEuNzM3LS44OS0yLjM4M2EyLjkzNSAyLjkzNSAwIDAgMC0xLjAyLS43MzQgMi44OCAyLjg4IDAgMCAwLTEuMjI1LS4yMzhIMi41MDh6bTEyLjA2NC4wNjJhLjMyLjMyIDAgMCAxIC4wMjguMzExbC0yLjMyNCA1LjA1NmMtLjA2My4xMjItLjE1My4xOC0uMjczLjE4aC0uMTYyYy0uMTIgMC0uMjEtLjA2LS4yNzYtLjE4NGwtMi4yOC00Ljk5M2EuMzE3LjMxNyAwIDAgMSAuMDMzLS4zMTYgNS4xMzYgNS4xMzYgMCAwIDAgLjk2MS0zLjE3Yy0uMDAyLS4wODguMTMzLS4xMjMuMTY4LS4wNDJsMS40NCAzLjIzNmguMDk4bDEuNDk0LTMuMzU0Yy4wMzUtLjA3OC4xNi0uMDQ5LjE2LjAzNiAwIDEuMTQ3LjI5IDIuMjgyLjkzMyAzLjI0em0xLjE5Ni43MjhjLTEuMTQtMS4xMjgtMS42NjgtMi40OTYtMS42NjgtNC4xMDggMC0xLjYyMi41MjUtMi45OTYgMS42NjgtNC4xMzNhNS43NCA1Ljc0IDAgMCAxIDEuOTEtMS4yODUgNS42NSA1LjY1IDAgMCAxIDIuMjQ4LS40MjMgNS42OTIgNS42OTIgMCAwIDEgMy45NCAxLjUwM2MuMTY0LjE1My4xNjcuMzA2LjAxNy40NTNsLTEuMjY5IDEuMzFjLS4xNC4xMjgtLjI3OS4xMjgtLjQwOCAwYTMuMjEgMy4yMSAwIDAgMC0yLjE5OS0uODI1Yy0uOTEyIDAtMS42Ny4zMjUtMi4yOC45ODFhMy4yNjcgMy4yNjcgMCAwIDAtLjg3IDIuMzQ1YzAgLjkwOC4yNyAxLjY4Ljg4MiAyLjMyMWEzLjAyMyAzLjAyMyAwIDAgMCAyLjI4Ni45NiAzLjI1NSAzLjI1NSAwIDAgMCAyLjE4MS0uNzc2Yy4xNS0uMTI5LjI5MS0uMTIzLjQyLjAxNWwxLjI3MiAxLjM0M2MuMTQxLjE0MS4xMzUuMjg1LS4wMTUuNDM1YTUuNDkgNS40OSAwIDAgMS0zLjk1NyAxLjU2NyA1LjY3NSA1LjY3NSAwIDAgMS0yLjI0NS0uNDE1IDUuNzk1IDUuNzk1IDAgMCAxLTEuOTEzLTEuMjd6Ii8+PC9zdmc+;" parent="sOep82PyB1NGChh_XDzF-1" vertex="1">
                    <mxGeometry x="-81.5" y="2079" width="31" height="40" as="geometry"/>
                </mxCell>
                <mxCell id="57" style="shape=image;editableCssRules=.*;image=data:image/svg+xml,PHN2ZyB2aWV3Qm94PSIwIDAgMjQgMjQiIHhtbG5zPSJodHRwOi8vd3d3LnczLm9yZy8yMDAwL3N2ZyI+PHN0eWxlPip7ZmlsbDojMjQ5NkVEfTwvc3R5bGU+PHBhdGggZD0iTTEzLjk4MyAxMS4wNzhoMi4xMTlhLjE4Ni4xODYgMCAwMC4xODYtLjE4NVY5LjAwNmEuMTg2LjE4NiAwIDAwLS4xODYtLjE4NmgtMi4xMTlhLjE4NS4xODUgMCAwMC0uMTg1LjE4NXYxLjg4OGMwIC4xMDIuMDgzLjE4NS4xODUuMTg1bS0yLjk1NC01LjQzaDIuMTE4YS4xODYuMTg2IDAgMDAuMTg2LS4xODZWMy41NzRhLjE4Ni4xODYgMCAwMC0uMTg2LS4xODVoLTIuMTE4YS4xODUuMTg1IDAgMDAtLjE4NS4xODV2MS44ODhjMCAuMTAyLjA4Mi4xODUuMTg1LjE4NW0wIDIuNzE2aDIuMTE4YS4xODcuMTg3IDAgMDAuMTg2LS4xODZWNi4yOWEuMTg2LjE4NiAwIDAwLS4xODYtLjE4NWgtMi4xMThhLjE4NS4xODUgMCAwMC0uMTg1LjE4NXYxLjg4N2MwIC4xMDIuMDgyLjE4NS4xODUuMTg2bS0yLjkzIDBoMi4xMmEuMTg2LjE4NiAwIDAwLjE4NC0uMTg2VjYuMjlhLjE4NS4xODUgMCAwMC0uMTg1LS4xODVIOC4xYS4xODUuMTg1IDAgMDAtLjE4NS4xODV2MS44ODdjMCAuMTAyLjA4My4xODUuMTg1LjE4Nm0tMi45NjQgMGgyLjExOWEuMTg2LjE4NiAwIDAwLjE4NS0uMTg2VjYuMjlhLjE4NS4xODUgMCAwMC0uMTg1LS4xODVINS4xMzZhLjE4Ni4xODYgMCAwMC0uMTg2LjE4NXYxLjg4N2MwIC4xMDIuMDg0LjE4NS4xODYuMTg2bTUuODkzIDIuNzE1aDIuMTE4YS4xODYuMTg2IDAgMDAuMTg2LS4xODVWOS4wMDZhLjE4Ni4xODYgMCAwMC0uMTg2LS4xODZoLTIuMTE4YS4xODUuMTg1IDAgMDAtLjE4NS4xODV2MS44ODhjMCAuMTAyLjA4Mi4xODUuMTg1LjE4NW0tMi45MyAwaDIuMTJhLjE4NS4xODUgMCAwMC4xODQtLjE4NVY5LjAwNmEuMTg1LjE4NSAwIDAwLS4xODQtLjE4NmgtMi4xMmEuMTg1LjE4NSAwIDAwLS4xODQuMTg1djEuODg4YzAgLjEwMi4wODMuMTg1LjE4NS4xODVtLTIuOTY0IDBoMi4xMTlhLjE4NS4xODUgMCAwMC4xODUtLjE4NVY5LjAwNmEuMTg1LjE4NSAwIDAwLS4xODQtLjE4NmgtMi4xMmEuMTg2LjE4NiAwIDAwLS4xODYuMTg2djEuODg3YzAgLjEwMi4wODQuMTg1LjE4Ni4xODVtLTIuOTIgMGgyLjEyYS4xODUuMTg1IDAgMDAuMTg0LS4xODVWOS4wMDZhLjE4NS4xODUgMCAwMC0uMTg0LS4xODZoLTIuMTJhLjE4NS4xODUgMCAwMC0uMTg0LjE4NXYxLjg4OGMwIC4xMDIuMDgyLjE4NS4xODUuMTg1TTIzLjc2MyA5Ljg5Yy0uMDY1LS4wNTEtLjY3Mi0uNTEtMS45NTQtLjUxLS4zMzguMDAxLS42NzYuMDMtMS4wMS4wODctLjI0OC0xLjctMS42NTMtMi41My0xLjcxNi0yLjU2NmwtLjM0NC0uMTk5LS4yMjYuMzI3Yy0uMjg0LjQzOC0uNDkuOTIyLS42MTIgMS40My0uMjMuOTctLjA5IDEuODgyLjQwMyAyLjY2MS0uNTk1LjMzMi0xLjU1LjQxMy0xLjc0NC40MkguNzUxYS43NTEuNzUxIDAgMDAtLjc1Ljc0OCAxMS4zNzYgMTEuMzc2IDAgMDAuNjkyIDQuMDYyYy41NDUgMS40MjggMS4zNTUgMi40OCAyLjQxIDMuMTI0IDEuMTguNzIzIDMuMSAxLjEzNyA1LjI3NSAxLjEzNy45ODMuMDAzIDEuOTYzLS4wODYgMi45My0uMjY2YTEyLjI0OCAxMi4yNDggMCAwMDMuODIzLTEuMzg5Yy45OC0uNTY3IDEuODYtMS4yODggMi42MS0yLjEzNiAxLjI1Mi0xLjQxOCAxLjk5OC0yLjk5NyAyLjU1My00LjRoLjIyMWMxLjM3MiAwIDIuMjE1LS41NDkgMi42OC0xLjAwOS4zMDktLjI5My41NS0uNjUuNzA3LTEuMDQ2bC4wOTgtLjI4OFoiLz48L3N2Zz4=;" parent="sOep82PyB1NGChh_XDzF-1" vertex="1">
                    <mxGeometry x="1124" y="2177.5" width="52" height="51" as="geometry"/>
                </mxCell>
                <mxCell id="61" value="" style="shape=image;verticalLabelPosition=bottom;verticalAlign=top;imageAspect=0;aspect=fixed;image=data:image/svg+xml,PHN2ZyB4bWxucz0iaHR0cDovL3d3dy53My5vcmcvMjAwMC9zdmciIGhlaWdodD0iNDhweCIgd2lkdGg9IjQ4cHgiIHZpZXdCb3g9IjAgMCA0OCA0OCI+PHBhdGggZD0iTTI0LjA0Nyw1Yy0xLjU1NSwwLjAwNS0yLjYzMywwLjE0Mi0zLjkzNiwwLjM2N2MtMy44NDgsMC42Ny00LjU0OSwyLjA3Ny00LjU0OSw0LjY3VjE0aDl2MkgxNS4yMmgtNC4zNWMtMi42MzYsMC00Ljk0MywxLjI0Mi01LjY3NCw0LjIxOWMtMC44MjYsMy40MTctMC44NjMsNS41NTcsMCw5LjEyNUM1Ljg1MSwzMi4wMDUsNy4yOTQsMzQsOS45MzEsMzRoMy42MzJ2LTUuMTA0YzAtMi45NjYsMi42ODYtNS44OTYsNS43NjQtNS44OTZoNy4yMzZjMi41MjMsMCw1LTEuODYyLDUtNC4zNzd2LTguNTg2YzAtMi40MzktMS43NTktNC4yNjMtNC4yMTgtNC42NzJDMjcuNDA2LDUuMzU5LDI1LjU4OSw0Ljk5NCwyNC4wNDcsNXogTTE5LjA2Myw5YzAuODIxLDAsMS41LDAuNjc3LDEuNSwxLjUwMmMwLDAuODMzLTAuNjc5LDEuNDk4LTEuNSwxLjQ5OGMtMC44MzcsMC0xLjUtMC42NjQtMS41LTEuNDk4QzE3LjU2Myw5LjY4LDE4LjIyNiw5LDE5LjA2Myw5eiIgZmlsbD0iIzAyNzdCRCIvPjxwYXRoIGQ9Ik0yMy4wNzgsNDNjMS41NTUtMC4wMDUsMi42MzMtMC4xNDIsMy45MzYtMC4zNjdjMy44NDgtMC42Nyw0LjU0OS0yLjA3Nyw0LjU0OS00LjY3VjM0aC05di0yaDkuMzQzaDQuMzVjMi42MzYsMCw0Ljk0My0xLjI0Miw1LjY3NC00LjIxOWMwLjgyNi0zLjQxNywwLjg2My01LjU1NywwLTkuMTI1QzQxLjI3NCwxNS45OTUsMzkuODMxLDE0LDM3LjE5NCwxNGgtMy42MzJ2NS4xMDRjMCwyLjk2Ni0yLjY4Niw1Ljg5Ni01Ljc2NCw1Ljg5NmgtNy4yMzZjLTIuNTIzLDAtNSwxLjg2Mi01LDQuMzc3djguNTg2YzAsMi40MzksMS43NTksNC4yNjMsNC4yMTgsNC42NzJDMTkuNzE5LDQyLjY0MSwyMS41MzYsNDMuMDA2LDIzLjA3OCw0M3ogTTI4LjA2MywzOWMtMC44MjEsMC0xLjUtMC42NzctMS41LTEuNTAyYzAtMC44MzMsMC42NzktMS40OTgsMS41LTEuNDk4YzAuODM3LDAsMS41LDAuNjY0LDEuNSwxLjQ5OEMyOS41NjMsMzguMzIsMjguODk5LDM5LDI4LjA2MywzOXoiIGZpbGw9IiNGRkMxMDciLz48L3N2Zz4=;" parent="sOep82PyB1NGChh_XDzF-1" vertex="1">
                    <mxGeometry x="-33" y="1962" width="27" height="27" as="geometry"/>
                </mxCell>
                <mxCell id="62" value="" style="shape=image;verticalLabelPosition=bottom;verticalAlign=top;imageAspect=0;aspect=fixed;image=data:image/svg+xml,PHN2ZyB4bWxucz0iaHR0cDovL3d3dy53My5vcmcvMjAwMC9zdmciIGhlaWdodD0iNDhweCIgd2lkdGg9IjQ4cHgiIHZpZXdCb3g9IjAgMCA0OCA0OCI+PHBhdGggZD0iTTI0LjA0Nyw1Yy0xLjU1NSwwLjAwNS0yLjYzMywwLjE0Mi0zLjkzNiwwLjM2N2MtMy44NDgsMC42Ny00LjU0OSwyLjA3Ny00LjU0OSw0LjY3VjE0aDl2MkgxNS4yMmgtNC4zNWMtMi42MzYsMC00Ljk0MywxLjI0Mi01LjY3NCw0LjIxOWMtMC44MjYsMy40MTctMC44NjMsNS41NTcsMCw5LjEyNUM1Ljg1MSwzMi4wMDUsNy4yOTQsMzQsOS45MzEsMzRoMy42MzJ2LTUuMTA0YzAtMi45NjYsMi42ODYtNS44OTYsNS43NjQtNS44OTZoNy4yMzZjMi41MjMsMCw1LTEuODYyLDUtNC4zNzd2LTguNTg2YzAtMi40MzktMS43NTktNC4yNjMtNC4yMTgtNC42NzJDMjcuNDA2LDUuMzU5LDI1LjU4OSw0Ljk5NCwyNC4wNDcsNXogTTE5LjA2Myw5YzAuODIxLDAsMS41LDAuNjc3LDEuNSwxLjUwMmMwLDAuODMzLTAuNjc5LDEuNDk4LTEuNSwxLjQ5OGMtMC44MzcsMC0xLjUtMC42NjQtMS41LTEuNDk4QzE3LjU2Myw5LjY4LDE4LjIyNiw5LDE5LjA2Myw5eiIgZmlsbD0iIzAyNzdCRCIvPjxwYXRoIGQ9Ik0yMy4wNzgsNDNjMS41NTUtMC4wMDUsMi42MzMtMC4xNDIsMy45MzYtMC4zNjdjMy44NDgtMC42Nyw0LjU0OS0yLjA3Nyw0LjU0OS00LjY3VjM0aC05di0yaDkuMzQzaDQuMzVjMi42MzYsMCw0Ljk0My0xLjI0Miw1LjY3NC00LjIxOWMwLjgyNi0zLjQxNywwLjg2My01LjU1NywwLTkuMTI1QzQxLjI3NCwxNS45OTUsMzkuODMxLDE0LDM3LjE5NCwxNGgtMy42MzJ2NS4xMDRjMCwyLjk2Ni0yLjY4Niw1Ljg5Ni01Ljc2NCw1Ljg5NmgtNy4yMzZjLTIuNTIzLDAtNSwxLjg2Mi01LDQuMzc3djguNTg2YzAsMi40MzksMS43NTksNC4yNjMsNC4yMTgsNC42NzJDMTkuNzE5LDQyLjY0MSwyMS41MzYsNDMuMDA2LDIzLjA3OCw0M3ogTTI4LjA2MywzOWMtMC44MjEsMC0xLjUtMC42NzctMS41LTEuNTAyYzAtMC44MzMsMC42NzktMS40OTgsMS41LTEuNDk4YzAuODM3LDAsMS41LDAuNjY0LDEuNSwxLjQ5OEMyOS41NjMsMzguMzIsMjguODk5LDM5LDI4LjA2MywzOXoiIGZpbGw9IiNGRkMxMDciLz48L3N2Zz4=;" parent="sOep82PyB1NGChh_XDzF-1" vertex="1">
                    <mxGeometry x="560" y="2016" width="27" height="27" as="geometry"/>
                </mxCell>
                <mxCell id="63" value="" style="shape=image;verticalLabelPosition=bottom;verticalAlign=top;imageAspect=0;aspect=fixed;image=data:image/svg+xml,PHN2ZyB4bWxucz0iaHR0cDovL3d3dy53My5vcmcvMjAwMC9zdmciIGhlaWdodD0iNDhweCIgd2lkdGg9IjQ4cHgiIHZpZXdCb3g9IjAgMCA0OCA0OCI+PHBhdGggZD0iTTI0LjA0Nyw1Yy0xLjU1NSwwLjAwNS0yLjYzMywwLjE0Mi0zLjkzNiwwLjM2N2MtMy44NDgsMC42Ny00LjU0OSwyLjA3Ny00LjU0OSw0LjY3VjE0aDl2MkgxNS4yMmgtNC4zNWMtMi42MzYsMC00Ljk0MywxLjI0Mi01LjY3NCw0LjIxOWMtMC44MjYsMy40MTctMC44NjMsNS41NTcsMCw5LjEyNUM1Ljg1MSwzMi4wMDUsNy4yOTQsMzQsOS45MzEsMzRoMy42MzJ2LTUuMTA0YzAtMi45NjYsMi42ODYtNS44OTYsNS43NjQtNS44OTZoNy4yMzZjMi41MjMsMCw1LTEuODYyLDUtNC4zNzd2LTguNTg2YzAtMi40MzktMS43NTktNC4yNjMtNC4yMTgtNC42NzJDMjcuNDA2LDUuMzU5LDI1LjU4OSw0Ljk5NCwyNC4wNDcsNXogTTE5LjA2Myw5YzAuODIxLDAsMS41LDAuNjc3LDEuNSwxLjUwMmMwLDAuODMzLTAuNjc5LDEuNDk4LTEuNSwxLjQ5OGMtMC44MzcsMC0xLjUtMC42NjQtMS41LTEuNDk4QzE3LjU2Myw5LjY4LDE4LjIyNiw5LDE5LjA2Myw5eiIgZmlsbD0iIzAyNzdCRCIvPjxwYXRoIGQ9Ik0yMy4wNzgsNDNjMS41NTUtMC4wMDUsMi42MzMtMC4xNDIsMy45MzYtMC4zNjdjMy44NDgtMC42Nyw0LjU0OS0yLjA3Nyw0LjU0OS00LjY3VjM0aC05di0yaDkuMzQzaDQuMzVjMi42MzYsMCw0Ljk0My0xLjI0Miw1LjY3NC00LjIxOWMwLjgyNi0zLjQxNywwLjg2My01LjU1NywwLTkuMTI1QzQxLjI3NCwxNS45OTUsMzkuODMxLDE0LDM3LjE5NCwxNGgtMy42MzJ2NS4xMDRjMCwyLjk2Ni0yLjY4Niw1Ljg5Ni01Ljc2NCw1Ljg5NmgtNy4yMzZjLTIuNTIzLDAtNSwxLjg2Mi01LDQuMzc3djguNTg2YzAsMi40MzksMS43NTksNC4yNjMsNC4yMTgsNC42NzJDMTkuNzE5LDQyLjY0MSwyMS41MzYsNDMuMDA2LDIzLjA3OCw0M3ogTTI4LjA2MywzOWMtMC44MjEsMC0xLjUtMC42NzctMS41LTEuNTAyYzAtMC44MzMsMC42NzktMS40OTgsMS41LTEuNDk4YzAuODM3LDAsMS41LDAuNjY0LDEuNSwxLjQ5OEMyOS41NjMsMzguMzIsMjguODk5LDM5LDI4LjA2MywzOXoiIGZpbGw9IiNGRkMxMDciLz48L3N2Zz4=;" parent="sOep82PyB1NGChh_XDzF-1" vertex="1">
                    <mxGeometry x="499" y="1791" width="27" height="27" as="geometry"/>
                </mxCell>
            </root>
        </mxGraphModel>
    </diagram>
    <diagram name="tf-aws-setup-maturity-level-0-solution-github-actions" id="mwSdYNyM5PpC_mEO38Fe">
        <mxGraphModel grid="0" page="0" gridSize="10" guides="1" tooltips="1" connect="1" arrows="1" fold="1" pageScale="1" pageWidth="1100" pageHeight="850" background="#ffffff" math="0" shadow="0">
            <root>
                <mxCell id="I7a3bJsOC2QIPho3Vu-L-0"/>
                <mxCell id="I7a3bJsOC2QIPho3Vu-L-1" parent="I7a3bJsOC2QIPho3Vu-L-0"/>
                <mxCell id="I7a3bJsOC2QIPho3Vu-L-2" value="&lt;span&gt;&amp;nbsp; &amp;nbsp; &amp;nbsp; GitHub&lt;/span&gt;" style="fillColor=none;strokeColor=#5A6C86;dashed=1;verticalAlign=top;fontStyle=0;fontColor=#5A6C86;whiteSpace=wrap;html=1;align=left;" parent="I7a3bJsOC2QIPho3Vu-L-1" vertex="1">
                    <mxGeometry x="225" y="471" width="432" height="317" as="geometry"/>
                </mxCell>
                <mxCell id="I7a3bJsOC2QIPho3Vu-L-3" value="AWS Account" style="points=[[0,0],[0.25,0],[0.5,0],[0.75,0],[1,0],[1,0.25],[1,0.5],[1,0.75],[1,1],[0.75,1],[0.5,1],[0.25,1],[0,1],[0,0.75],[0,0.5],[0,0.25]];outlineConnect=0;gradientColor=none;html=1;whiteSpace=wrap;fontSize=12;fontStyle=0;container=1;pointerEvents=0;collapsible=0;recursiveResize=0;shape=mxgraph.aws4.group;grIcon=mxgraph.aws4.group_account;strokeColor=#CD2264;fillColor=none;verticalAlign=top;align=left;spacingLeft=30;fontColor=#CD2264;dashed=0;" parent="I7a3bJsOC2QIPho3Vu-L-1" vertex="1">
                    <mxGeometry x="767" y="407" width="763" height="528" as="geometry"/>
                </mxCell>
                <mxCell id="I7a3bJsOC2QIPho3Vu-L-4" value="eu-west-1" style="points=[[0,0],[0.25,0],[0.5,0],[0.75,0],[1,0],[1,0.25],[1,0.5],[1,0.75],[1,1],[0.75,1],[0.5,1],[0.25,1],[0,1],[0,0.75],[0,0.5],[0,0.25]];outlineConnect=0;gradientColor=none;html=1;whiteSpace=wrap;fontSize=12;fontStyle=0;container=1;pointerEvents=0;collapsible=0;recursiveResize=0;shape=mxgraph.aws4.group;grIcon=mxgraph.aws4.group_region;strokeColor=#00A4A6;fillColor=none;verticalAlign=top;align=left;spacingLeft=30;fontColor=#147EBA;dashed=1;" parent="I7a3bJsOC2QIPho3Vu-L-3" vertex="1">
                    <mxGeometry x="30" y="166" width="640" height="305" as="geometry"/>
                </mxCell>
                <mxCell id="I7a3bJsOC2QIPho3Vu-L-5" value="S3 Backend" style="fillColor=none;strokeColor=#5A6C86;dashed=1;verticalAlign=top;fontStyle=0;fontColor=#5A6C86;whiteSpace=wrap;html=1;" parent="I7a3bJsOC2QIPho3Vu-L-4" vertex="1">
                    <mxGeometry x="29" y="46" width="335" height="192" as="geometry"/>
                </mxCell>
                <mxCell id="I7a3bJsOC2QIPho3Vu-L-6" style="edgeStyle=none;html=1;fontStyle=0" parent="I7a3bJsOC2QIPho3Vu-L-4" source="I7a3bJsOC2QIPho3Vu-L-7" target="I7a3bJsOC2QIPho3Vu-L-8" edge="1">
                    <mxGeometry relative="1" as="geometry"/>
                </mxCell>
                <mxCell id="I7a3bJsOC2QIPho3Vu-L-7" value="&lt;div&gt;&lt;span style=&quot;color: rgb(63, 63, 63); font-family: Helvetica; font-size: 12px; font-style: normal; font-variant-ligatures: normal; font-variant-caps: normal; font-weight: 400; letter-spacing: normal; orphans: 2; text-align: center; text-indent: 0px; text-transform: none; widows: 2; word-spacing: 0px; -webkit-text-stroke-width: 0px; white-space: nowrap; background-color: rgb(251, 251, 251); text-decoration-thickness: initial; text-decoration-style: initial; text-decoration-color: initial; float: none; display: inline !important;&quot;&gt;S3 Bucket&lt;/span&gt;&lt;/div&gt;&lt;span style=&quot;color: rgb(63, 63, 63); font-family: Helvetica; font-size: 12px; font-style: normal; font-variant-ligatures: normal; font-variant-caps: normal; font-weight: 400; letter-spacing: normal; orphans: 2; text-align: center; text-indent: 0px; text-transform: none; widows: 2; word-spacing: 0px; -webkit-text-stroke-width: 0px; white-space: nowrap; background-color: rgb(251, 251, 251); text-decoration-thickness: initial; text-decoration-style: initial; text-decoration-color: initial; float: none; display: inline !important;&quot;&gt;tf-remote-backends-ehb&lt;/span&gt;" style="sketch=0;outlineConnect=0;fontColor=#232F3E;gradientColor=none;fillColor=#7AA116;strokeColor=none;dashed=0;verticalLabelPosition=bottom;verticalAlign=top;align=center;html=1;fontSize=12;fontStyle=0;aspect=fixed;pointerEvents=1;shape=mxgraph.aws4.bucket;" parent="I7a3bJsOC2QIPho3Vu-L-4" vertex="1">
                    <mxGeometry x="91.73" y="66" width="36.54" height="38" as="geometry"/>
                </mxCell>
                <mxCell id="I7a3bJsOC2QIPho3Vu-L-8" value="terraform.tfstate" style="sketch=0;outlineConnect=0;fontColor=#232F3E;gradientColor=none;fillColor=#232F3D;strokeColor=none;dashed=0;verticalLabelPosition=bottom;verticalAlign=top;align=center;html=1;fontSize=12;fontStyle=0;aspect=fixed;pointerEvents=1;shape=mxgraph.aws4.document;" parent="I7a3bJsOC2QIPho3Vu-L-4" vertex="1">
                    <mxGeometry x="95.01999999999998" y="168" width="29.96" height="41" as="geometry"/>
                </mxCell>
                <mxCell id="I7a3bJsOC2QIPho3Vu-L-9" value="Encryption" style="sketch=0;outlineConnect=0;gradientColor=none;fillColor=#DD344C;strokeColor=none;dashed=0;verticalLabelPosition=bottom;verticalAlign=top;align=center;aspect=fixed;pointerEvents=1;shape=mxgraph.aws4.data_encryption_key;html=1;" parent="I7a3bJsOC2QIPho3Vu-L-4" vertex="1">
                    <mxGeometry x="317" y="49" width="26.23" height="33" as="geometry"/>
                </mxCell>
                <mxCell id="I7a3bJsOC2QIPho3Vu-L-10" value="Versioning" style="image;aspect=fixed;points=[];align=center;image=img/lib/azure2/general/Versions.svg;html=1;" parent="I7a3bJsOC2QIPho3Vu-L-4" vertex="1">
                    <mxGeometry x="314.16000000000025" y="113.5" width="27.9" height="27" as="geometry"/>
                </mxCell>
                <mxCell id="I7a3bJsOC2QIPho3Vu-L-11" value="State Lock" style="html=1;verticalLabelPosition=bottom;align=center;labelBackgroundColor=#ffffff;verticalAlign=top;strokeWidth=2;strokeColor=#0080F0;shadow=0;dashed=0;shape=mxgraph.ios7.icons.locked;" parent="I7a3bJsOC2QIPho3Vu-L-4" vertex="1">
                    <mxGeometry x="316" y="171" width="24" height="30" as="geometry"/>
                </mxCell>
                <mxCell id="0" value="&lt;div&gt;&lt;span style=&quot;color: rgb(63, 63, 63); font-family: Helvetica; font-size: 12px; font-style: normal; font-variant-ligatures: normal; font-variant-caps: normal; font-weight: 400; letter-spacing: normal; orphans: 2; text-align: center; text-indent: 0px; text-transform: none; widows: 2; word-spacing: 0px; -webkit-text-stroke-width: 0px; white-space: nowrap; background-color: rgb(251, 251, 251); text-decoration-thickness: initial; text-decoration-style: initial; text-decoration-color: initial; float: none; display: inline !important;&quot;&gt;S3 Bucket&lt;/span&gt;&lt;/div&gt;&lt;div&gt;&lt;span style=&quot;orphans: 2; text-align: center; text-indent: 0px; widows: 2; background-color: rgb(251, 251, 251); text-decoration-thickness: initial; text-decoration-style: initial; text-decoration-color: initial; float: none; display: inline !important; color: rgb(63, 63, 63);&quot;&gt;mlops-course-ehb-data-dev&lt;/span&gt;&lt;/div&gt;" style="sketch=0;outlineConnect=0;fontColor=#232F3E;gradientColor=none;fillColor=#7AA116;strokeColor=none;dashed=0;verticalLabelPosition=bottom;verticalAlign=top;align=center;html=1;fontSize=12;fontStyle=0;aspect=fixed;pointerEvents=1;shape=mxgraph.aws4.bucket;" parent="I7a3bJsOC2QIPho3Vu-L-4" vertex="1">
                    <mxGeometry x="480" y="66" width="36.54" height="38" as="geometry"/>
                </mxCell>
                <mxCell id="I7a3bJsOC2QIPho3Vu-L-12" style="edgeStyle=none;html=1;fontStyle=0" parent="I7a3bJsOC2QIPho3Vu-L-3" source="I7a3bJsOC2QIPho3Vu-L-13" target="I7a3bJsOC2QIPho3Vu-L-15" edge="1">
                    <mxGeometry relative="1" as="geometry"/>
                </mxCell>
                <mxCell id="I7a3bJsOC2QIPho3Vu-L-13" value="IAM User&lt;div&gt;Terraform User&lt;/div&gt;" style="sketch=0;outlineConnect=0;fontColor=#232F3E;gradientColor=none;fillColor=#DD344C;strokeColor=none;dashed=0;verticalLabelPosition=bottom;verticalAlign=top;align=center;html=1;fontSize=12;fontStyle=0;aspect=fixed;pointerEvents=1;shape=mxgraph.aws4.role;" parent="I7a3bJsOC2QIPho3Vu-L-3" vertex="1">
                    <mxGeometry x="93" y="64" width="33.68" height="19" as="geometry"/>
                </mxCell>
                <mxCell id="I7a3bJsOC2QIPho3Vu-L-14" style="edgeStyle=none;html=1;fontStyle=0" parent="I7a3bJsOC2QIPho3Vu-L-3" source="I7a3bJsOC2QIPho3Vu-L-15" target="I7a3bJsOC2QIPho3Vu-L-5" edge="1">
                    <mxGeometry relative="1" as="geometry"/>
                </mxCell>
                <mxCell id="I7a3bJsOC2QIPho3Vu-L-15" value="&lt;div&gt;IAM Role&lt;/div&gt;Administrative Access&amp;nbsp;" style="sketch=0;outlineConnect=0;fontColor=#232F3E;gradientColor=none;fillColor=#DD344C;strokeColor=none;dashed=0;verticalLabelPosition=bottom;verticalAlign=top;align=center;html=1;fontSize=12;fontStyle=0;aspect=fixed;pointerEvents=1;shape=mxgraph.aws4.long_term_security_credential;" parent="I7a3bJsOC2QIPho3Vu-L-3" vertex="1">
                    <mxGeometry x="212" y="58" width="35.04" height="31" as="geometry"/>
                </mxCell>
                <mxCell id="axX2pNqQfqSjAvKcueDQ-0" style="edgeStyle=none;html=1;entryX=0;entryY=0.5;entryDx=0;entryDy=0;fontStyle=0" parent="I7a3bJsOC2QIPho3Vu-L-1" source="I7a3bJsOC2QIPho3Vu-L-17" target="I7a3bJsOC2QIPho3Vu-L-3" edge="1">
                    <mxGeometry relative="1" as="geometry"/>
                </mxCell>
                <mxCell id="I7a3bJsOC2QIPho3Vu-L-17" value="Terraform CLI" style="shape=image;verticalLabelPosition=bottom;verticalAlign=top;imageAspect=0;aspect=fixed;image=data:image/svg+xml,PHN2ZyB4bWxucz0iaHR0cDovL3d3dy53My5vcmcvMjAwMC9zdmciIHZpZXdCb3g9IjAgNy41IDUwIDU3IiBoZWlnaHQ9IjU3IiB3aWR0aD0iNTAiIGlkPSJMb2dvcyI+PGRlZnM+PHN0eWxlPi5jbHMtMXtmaWxsOiM3YjQyYmM7ZmlsbC1ydWxlOmV2ZW5vZGQ7c3Ryb2tlLXdpZHRoOjBweDt9PC9zdHlsZT48L2RlZnM+PHBhdGggZD0iTTE3LjMsMTcuNWwxNS41LDl2MThsLTE1LjUtOXYtMThaIiBjbGFzcz0iY2xzLTEiLz48cGF0aCBkPSJNMzQuNSwyNi41djE4bDE1LjUtOXYtMThsLTE1LjUsOVoiIGNsYXNzPSJjbHMtMSIvPjxwYXRoIGQ9Ik0wLDcuNXYxOGwxNS41LDl2LTE4TDAsNy41WiIgY2xhc3M9ImNscy0xIi8+PHBhdGggZD0iTTE3LjMsNTUuNWwxNS41LDl2LTE4bC0xNS41LTl2MThaIiBjbGFzcz0iY2xzLTEiLz48L3N2Zz4=;" parent="I7a3bJsOC2QIPho3Vu-L-1" vertex="1">
                    <mxGeometry x="574" y="649" width="42.11" height="48" as="geometry"/>
                </mxCell>
                <mxCell id="2RC_NORF-FVhNrAbsMOE-4" style="edgeStyle=none;html=1;entryX=0;entryY=0.5;entryDx=0;entryDy=0;labelPosition=center;verticalLabelPosition=top;align=center;verticalAlign=bottom;fontStyle=0" parent="I7a3bJsOC2QIPho3Vu-L-1" target="I7a3bJsOC2QIPho3Vu-L-2" edge="1">
                    <mxGeometry relative="1" as="geometry">
                        <mxPoint x="111" y="628" as="sourcePoint"/>
                    </mxGeometry>
                </mxCell>
                <mxCell id="2RC_NORF-FVhNrAbsMOE-5" value="Commit &amp;amp; Push" style="edgeLabel;html=1;align=center;verticalAlign=bottom;resizable=0;points=[];labelPosition=center;verticalLabelPosition=top;" parent="2RC_NORF-FVhNrAbsMOE-4" vertex="1" connectable="0">
                    <mxGeometry x="0.0711" relative="1" as="geometry">
                        <mxPoint as="offset"/>
                    </mxGeometry>
                </mxCell>
                <mxCell id="I7a3bJsOC2QIPho3Vu-L-18" value="Developer X" style="sketch=0;outlineConnect=0;fontColor=#232F3E;gradientColor=none;fillColor=#232F3D;strokeColor=none;dashed=0;verticalLabelPosition=bottom;verticalAlign=top;align=center;html=1;fontSize=12;fontStyle=0;aspect=fixed;pointerEvents=1;shape=mxgraph.aws4.user;" parent="I7a3bJsOC2QIPho3Vu-L-1" vertex="1">
                    <mxGeometry x="74" y="608" width="39" height="39" as="geometry"/>
                </mxCell>
                <mxCell id="I7a3bJsOC2QIPho3Vu-L-20" value="Terraform&amp;nbsp;&lt;span style=&quot;background-color: transparent;&quot;&gt;Files&lt;/span&gt;" style="sketch=0;outlineConnect=0;fontColor=#232F3E;gradientColor=none;fillColor=#232F3D;strokeColor=none;dashed=0;verticalLabelPosition=bottom;verticalAlign=top;align=center;html=1;fontSize=12;fontStyle=0;aspect=fixed;pointerEvents=1;shape=mxgraph.aws4.documents3;" parent="I7a3bJsOC2QIPho3Vu-L-1" vertex="1">
                    <mxGeometry x="284" y="663" width="30.69" height="42" as="geometry"/>
                </mxCell>
                <mxCell id="2RC_NORF-FVhNrAbsMOE-0" style="edgeStyle=none;html=1;exitX=1;exitY=0.5;exitDx=0;exitDy=0;exitPerimeter=0;entryX=0;entryY=0.5;entryDx=0;entryDy=0;fontStyle=0" parent="I7a3bJsOC2QIPho3Vu-L-1" source="I7a3bJsOC2QIPho3Vu-L-21" target="I7a3bJsOC2QIPho3Vu-L-17" edge="1">
                    <mxGeometry relative="1" as="geometry"/>
                </mxCell>
                <mxCell id="I7a3bJsOC2QIPho3Vu-L-21" value="AWS CLI&amp;nbsp;&lt;span style=&quot;background-color: transparent;&quot;&gt;&amp;amp;&amp;nbsp;&lt;/span&gt;&lt;div&gt;&lt;span style=&quot;background-color: transparent;&quot;&gt;Access Key&lt;/span&gt;&lt;/div&gt;" style="sketch=0;points=[[0,0,0],[0.25,0,0],[0.5,0,0],[0.75,0,0],[1,0,0],[0,1,0],[0.25,1,0],[0.5,1,0],[0.75,1,0],[1,1,0],[0,0.25,0],[0,0.5,0],[0,0.75,0],[1,0.25,0],[1,0.5,0],[1,0.75,0]];points=[[0,0,0],[0.25,0,0],[0.5,0,0],[0.75,0,0],[1,0,0],[0,1,0],[0.25,1,0],[0.5,1,0],[0.75,1,0],[1,1,0],[0,0.25,0],[0,0.5,0],[0,0.75,0],[1,0.25,0],[1,0.5,0],[1,0.75,0]];outlineConnect=0;fontColor=#232F3E;fillColor=#E7157B;strokeColor=#ffffff;dashed=0;verticalLabelPosition=bottom;verticalAlign=top;align=center;html=1;fontSize=12;fontStyle=0;aspect=fixed;shape=mxgraph.aws4.resourceIcon;resIcon=mxgraph.aws4.command_line_interface;" parent="I7a3bJsOC2QIPho3Vu-L-1" vertex="1">
                    <mxGeometry x="477" y="656" width="35" height="35" as="geometry"/>
                </mxCell>
                <mxCell id="6hvZE7LONXoAUK2N37oM-7" style="shape=image;editableCssRules=.*;image=data:image/svg+xml,PHN2ZyB2aWV3Qm94PSIwIDAgMjQgMjQiIHhtbG5zPSJodHRwOi8vd3d3LnczLm9yZy8yMDAwL3N2ZyI+PHN0eWxlPip7ZmlsbDojMTgxNzE3fTwvc3R5bGU+PHBhdGggZD0iTTEyIC4yOTdjLTYuNjMgMC0xMiA1LjM3My0xMiAxMiAwIDUuMzAzIDMuNDM4IDkuOCA4LjIwNSAxMS4zODUuNi4xMTMuODItLjI1OC44Mi0uNTc3IDAtLjI4NS0uMDEtMS4wNC0uMDE1LTIuMDQtMy4zMzguNzI0LTQuMDQyLTEuNjEtNC4wNDItMS42MUM0LjQyMiAxOC4wNyAzLjYzMyAxNy43IDMuNjMzIDE3LjdjLTEuMDg3LS43NDQuMDg0LS43MjkuMDg0LS43MjkgMS4yMDUuMDg0IDEuODM4IDEuMjM2IDEuODM4IDEuMjM2IDEuMDcgMS44MzUgMi44MDkgMS4zMDUgMy40OTUuOTk4LjEwOC0uNzc2LjQxNy0xLjMwNS43Ni0xLjYwNS0yLjY2NS0uMy01LjQ2Ni0xLjMzMi01LjQ2Ni01LjkzIDAtMS4zMS40NjUtMi4zOCAxLjIzNS0zLjIyLS4xMzUtLjMwMy0uNTQtMS41MjMuMTA1LTMuMTc2IDAgMCAxLjAwNS0uMzIyIDMuMyAxLjIzLjk2LS4yNjcgMS45OC0uMzk5IDMtLjQwNSAxLjAyLjAwNiAyLjA0LjEzOCAzIC40MDUgMi4yOC0xLjU1MiAzLjI4NS0xLjIzIDMuMjg1LTEuMjMuNjQ1IDEuNjUzLjI0IDIuODczLjEyIDMuMTc2Ljc2NS44NCAxLjIzIDEuOTEgMS4yMyAzLjIyIDAgNC42MS0yLjgwNSA1LjYyNS01LjQ3NSA1LjkyLjQyLjM2LjgxIDEuMDk2LjgxIDIuMjIgMCAxLjYwNi0uMDE1IDIuODk2LS4wMTUgMy4yODYgMCAuMzE1LjIxLjY5LjgyNS41N0MyMC41NjUgMjIuMDkyIDI0IDE3LjU5MiAyNCAxMi4yOTdjMC02LjYyNy01LjM3My0xMi0xMi0xMiIvPjwvc3ZnPg==;" parent="I7a3bJsOC2QIPho3Vu-L-1" vertex="1">
                    <mxGeometry x="205" y="475" width="62" height="15" as="geometry"/>
                </mxCell>
                <mxCell id="6hvZE7LONXoAUK2N37oM-8" value="GitHub Actions" style="shape=image;editableCssRules=.*;image=data:image/svg+xml,PHN2ZyB2aWV3Qm94PSIwIDAgMjQgMjQiIHhtbG5zPSJodHRwOi8vd3d3LnczLm9yZy8yMDAwL3N2ZyI+PHN0eWxlPip7ZmlsbDojMjA4OEZGfTwvc3R5bGU+PHBhdGggZD0iTTEwLjk4NCAxMy44MzZhLjUuNSAwIDAgMS0uMzUzLS4xNDZsLS43NDUtLjc0M2EuNS41IDAgMSAxIC43MDYtLjcwOGwuMzkyLjM5MSAxLjE4MS0xLjE4YS41LjUgMCAwIDEgLjcwOC43MDdsLTEuNTM1IDEuNTMzYS41MDQuNTA0IDAgMCAxLS4zNTQuMTQ2em05LjM1My0uMTQ3bDEuNTM0LTEuNTMyYS41LjUgMCAwIDAtLjcwNy0uNzA3bC0xLjE4MSAxLjE4LS4zOTItLjM5MWEuNS41IDAgMSAwLS43MDYuNzA4bC43NDYuNzQzYS40OTcuNDk3IDAgMCAwIC43MDYtLjAwMXpNNC41MjcgNy40NTJsMi41NTctMS41ODVBMSAxIDAgMCAwIDcuMDkgNC4xN0w0LjUzMyAyLjU2QTEgMSAwIDAgMCAzIDMuNDA2djMuMTk2YTEuMDAxIDEuMDAxIDAgMCAwIDEuNTI3Ljg1em0yLjAzLTIuNDM2TDQgNi42MDJWMy40MDZsMi41NTcgMS42MXpNMjQgMTIuNWMwIDEuOTMtMS41NyAzLjUtMy41IDMuNWEzLjUwMyAzLjUwMyAwIDAgMS0zLjQ2LTNoLTIuMDhhMy41MDMgMy41MDMgMCAwIDEtMy40NiAzIDMuNTAyIDMuNTAyIDAgMCAxLTMuNDYtM2gtLjU1OGMtLjk3MiAwLTEuODUtLjM5OS0yLjQ4Mi0xLjA0MlYxN2MwIDEuNjU0IDEuMzQ2IDMgMyAzaC4wNGMuMjQ0LTEuNjkzIDEuNy0zIDMuNDYtMyAxLjkzIDAgMy41IDEuNTcgMy41IDMuNVMxMy40MyAyNCAxMS41IDI0YTMuNTAyIDMuNTAyIDAgMCAxLTMuNDYtM0g4Yy0yLjIwNiAwLTQtMS43OTQtNC00VjkuODk5QTUuMDA4IDUuMDA4IDAgMCAxIDAgNWMwLTIuNzU3IDIuMjQzLTUgNS01czUgMi4yNDMgNSA1YTUuMDA1IDUuMDA1IDAgMCAxLTQuOTUyIDQuOTk4QTIuNDgyIDIuNDgyIDAgMCAwIDcuNDgyIDEyaC41NThjLjI0NC0xLjY5MyAxLjctMyAzLjQ2LTNhMy41MDIgMy41MDIgMCAwIDEgMy40NiAzaDIuMDhhMy41MDMgMy41MDMgMCAwIDEgMy40Ni0zYzEuOTMgMCAzLjUgMS41NyAzLjUgMy41em0tMTUgOGMwIDEuMzc4IDEuMTIyIDIuNSAyLjUgMi41czIuNS0xLjEyMiAyLjUtMi41LTEuMTIyLTIuNS0yLjUtMi41UzkgMTkuMTIyIDkgMjAuNXpNNSA5YzIuMjA2IDAgNC0xLjc5NCA0LTRTNy4yMDYgMSA1IDEgMSAyLjc5NCAxIDVzMS43OTQgNCA0IDR6bTkgMy41YzAtMS4zNzgtMS4xMjItMi41LTIuNS0yLjVTOSAxMS4xMjIgOSAxMi41czEuMTIyIDIuNSAyLjUgMi41IDIuNS0xLjEyMiAyLjUtMi41em05IDBjMC0xLjM3OC0xLjEyMi0yLjUtMi41LTIuNVMxOCAxMS4xMjIgMTggMTIuNXMxLjEyMiAyLjUgMi41IDIuNSAyLjUtMS4xMjIgMi41LTIuNXptLTEzIDhhLjUuNSAwIDEgMCAxIDAgLjUuNSAwIDAgMC0xIDB6bTIgMGEuNS41IDAgMSAwIDEgMCAuNS41IDAgMCAwLTEgMHptMTIgMGMwIDEuOTMtMS41NyAzLjUtMy41IDMuNWEzLjUwMyAzLjUwMyAwIDAgMS0zLjQ2LTMuMDAyYy0uMDA3LjAwMS0uMDEzLjAwNS0uMDIxLjAwNWwtLjUwNi4wMTdoLS4wMTdhLjUuNSAwIDAgMS0uMDE2LS45OTlsLjUwNi0uMDE3Yy4wMTgtLjAwMi4wMzUuMDA2LjA1Mi4wMDdBMy41MDMgMy41MDMgMCAwIDEgMjAuNSAxN2MxLjkzIDAgMy41IDEuNTcgMy41IDMuNXptLTEgMGMwLTEuMzc4LTEuMTIyLTIuNS0yLjUtMi41UzE4IDE5LjEyMiAxOCAyMC41czEuMTIyIDIuNSAyLjUgMi41IDIuNS0xLjEyMiAyLjUtMi41eiIvPjwvc3ZnPg==;labelPosition=center;verticalLabelPosition=bottom;align=center;verticalAlign=top;" parent="I7a3bJsOC2QIPho3Vu-L-1" vertex="1">
                    <mxGeometry x="469" y="550" width="50" height="40" as="geometry"/>
                </mxCell>
                <mxCell id="6hvZE7LONXoAUK2N37oM-11" style="edgeStyle=none;html=1;fontStyle=0" parent="I7a3bJsOC2QIPho3Vu-L-1" source="6hvZE7LONXoAUK2N37oM-10" target="I7a3bJsOC2QIPho3Vu-L-20" edge="1">
                    <mxGeometry relative="1" as="geometry"/>
                </mxCell>
                <mxCell id="6hvZE7LONXoAUK2N37oM-12" value="Trigger CI/CD Workflows" style="edgeStyle=none;html=1;labelPosition=center;verticalLabelPosition=top;align=center;verticalAlign=bottom;fontStyle=0" parent="I7a3bJsOC2QIPho3Vu-L-1" source="6hvZE7LONXoAUK2N37oM-10" target="6hvZE7LONXoAUK2N37oM-8" edge="1">
                    <mxGeometry relative="1" as="geometry"/>
                </mxCell>
                <mxCell id="6hvZE7LONXoAUK2N37oM-10" value="GitHub Repository" style="shape=image;editableCssRules=.*;image=data:image/svg+xml,PHN2ZyB2aWV3Qm94PSIwIDAgMjQgMjQiIHhtbG5zPSJodHRwOi8vd3d3LnczLm9yZy8yMDAwL3N2ZyI+PHN0eWxlPip7ZmlsbDojRjA1MDMyfTwvc3R5bGU+PHBhdGggZD0iTTIzLjU0NiAxMC45M0wxMy4wNjcuNDUyYy0uNjA0LS42MDMtMS41ODItLjYwMy0yLjE4OCAwTDguNzA4IDIuNjI3bDIuNzYgMi43NmMuNjQ1LS4yMTUgMS4zNzktLjA3IDEuODg5LjQ0MS41MTYuNTE1LjY1OCAxLjI1OC40MzggMS45bDIuNjU4IDIuNjZjLjY0NS0uMjIzIDEuMzg3LS4wNzggMS45LjQzNS43MjEuNzIuNzIxIDEuODg0IDAgMi42MDQtLjcxOS43MTktMS44ODEuNzE5LTIuNiAwLS41MzktLjU0MS0uNjc0LTEuMzM3LS40MDQtMS45OTZMMTIuODYgOC45NTV2Ni41MjVjLjE3Ni4wODYuMzQyLjIwMy40ODguMzQ4LjcxMy43MjEuNzEzIDEuODgzIDAgMi42LS43MTkuNzIxLTEuODg5LjcyMS0yLjYwOSAwLS43MTktLjcxOS0uNzE5LTEuODc5IDAtMi41OTguMTgyLS4xOC4zODctLjMxNi42MDUtLjQwNlY4LjgzNWMtLjIxNy0uMDkxLS40MjQtLjIyMi0uNi0uNDAxLS41NDUtLjU0NS0uNjc2LTEuMzQyLS4zOTYtMi4wMDlMNy42MzYgMy43LjQ1IDEwLjg4MWMtLjYuNjA1LS42IDEuNTg0IDAgMi4xODlsMTAuNDggMTAuNDc3Yy42MDQuNjA0IDEuNTgyLjYwNCAyLjE4NiAwbDEwLjQzLTEwLjQzYy42MDUtLjYwMy42MDUtMS41ODIgMC0yLjE4NyIvPjwvc3ZnPg==;labelPosition=center;verticalLabelPosition=bottom;align=center;verticalAlign=top;" parent="I7a3bJsOC2QIPho3Vu-L-1" vertex="1">
                    <mxGeometry x="276" y="552" width="50" height="40" as="geometry"/>
                </mxCell>
                <mxCell id="2RC_NORF-FVhNrAbsMOE-2" style="edgeStyle=none;html=1;exitX=0.5;exitY=1;exitDx=0;exitDy=0;entryX=0.5;entryY=0;entryDx=0;entryDy=0;entryPerimeter=0;fontStyle=0" parent="I7a3bJsOC2QIPho3Vu-L-1" source="6hvZE7LONXoAUK2N37oM-8" target="I7a3bJsOC2QIPho3Vu-L-21" edge="1">
                    <mxGeometry relative="1" as="geometry"/>
                </mxCell>
            </root>
        </mxGraphModel>
    </diagram>
    <diagram name="tf-aws-setup-maturity-level-0-solution-remote-backend" id="qeGhzs8fQwmjpmQWkRHa">
        <mxGraphModel grid="0" page="0" gridSize="10" guides="1" tooltips="1" connect="1" arrows="1" fold="1" pageScale="1" pageWidth="1100" pageHeight="850" background="#ffffff" math="0" shadow="0">
            <root>
                <mxCell id="_ASd7ttjQse1Z8Tchp8T-0"/>
                <mxCell id="_ASd7ttjQse1Z8Tchp8T-1" parent="_ASd7ttjQse1Z8Tchp8T-0"/>
                <mxCell id="_ASd7ttjQse1Z8Tchp8T-2" value="Local Development Environment" style="fillColor=none;strokeColor=#5A6C86;dashed=1;verticalAlign=top;fontStyle=0;fontColor=#5A6C86;whiteSpace=wrap;html=1;" parent="_ASd7ttjQse1Z8Tchp8T-1" vertex="1">
                    <mxGeometry x="202" y="423" width="430" height="193" as="geometry"/>
                </mxCell>
                <mxCell id="_ASd7ttjQse1Z8Tchp8T-3" value="AWS Account" style="points=[[0,0],[0.25,0],[0.5,0],[0.75,0],[1,0],[1,0.25],[1,0.5],[1,0.75],[1,1],[0.75,1],[0.5,1],[0.25,1],[0,1],[0,0.75],[0,0.5],[0,0.25]];outlineConnect=0;gradientColor=none;html=1;whiteSpace=wrap;fontSize=12;fontStyle=0;container=1;pointerEvents=0;collapsible=0;recursiveResize=0;shape=mxgraph.aws4.group;grIcon=mxgraph.aws4.group_account;strokeColor=#CD2264;fillColor=none;verticalAlign=top;align=left;spacingLeft=30;fontColor=#CD2264;dashed=0;" parent="_ASd7ttjQse1Z8Tchp8T-1" vertex="1">
                    <mxGeometry x="767" y="407" width="612" height="528" as="geometry"/>
                </mxCell>
                <mxCell id="_ASd7ttjQse1Z8Tchp8T-4" value="eu-west-1" style="points=[[0,0],[0.25,0],[0.5,0],[0.75,0],[1,0],[1,0.25],[1,0.5],[1,0.75],[1,1],[0.75,1],[0.5,1],[0.25,1],[0,1],[0,0.75],[0,0.5],[0,0.25]];outlineConnect=0;gradientColor=none;html=1;whiteSpace=wrap;fontSize=12;fontStyle=0;container=1;pointerEvents=0;collapsible=0;recursiveResize=0;shape=mxgraph.aws4.group;grIcon=mxgraph.aws4.group_region;strokeColor=#00A4A6;fillColor=none;verticalAlign=top;align=left;spacingLeft=30;fontColor=#147EBA;dashed=1;" parent="_ASd7ttjQse1Z8Tchp8T-3" vertex="1">
                    <mxGeometry x="30" y="166" width="475" height="305" as="geometry"/>
                </mxCell>
                <mxCell id="_ASd7ttjQse1Z8Tchp8T-8" value="S3 Backend" style="fillColor=none;strokeColor=#5A6C86;dashed=1;verticalAlign=top;fontStyle=0;fontColor=#5A6C86;whiteSpace=wrap;html=1;" parent="_ASd7ttjQse1Z8Tchp8T-4" vertex="1">
                    <mxGeometry x="29" y="46" width="335" height="192" as="geometry"/>
                </mxCell>
                <mxCell id="_ASd7ttjQse1Z8Tchp8T-5" style="edgeStyle=none;html=1;" parent="_ASd7ttjQse1Z8Tchp8T-4" source="_ASd7ttjQse1Z8Tchp8T-6" target="_ASd7ttjQse1Z8Tchp8T-7" edge="1">
                    <mxGeometry relative="1" as="geometry"/>
                </mxCell>
                <mxCell id="_ASd7ttjQse1Z8Tchp8T-6" value="&lt;div&gt;&lt;span style=&quot;color: rgb(63, 63, 63); font-family: Helvetica; font-size: 12px; font-style: normal; font-variant-ligatures: normal; font-variant-caps: normal; font-weight: 400; letter-spacing: normal; orphans: 2; text-align: center; text-indent: 0px; text-transform: none; widows: 2; word-spacing: 0px; -webkit-text-stroke-width: 0px; white-space: nowrap; background-color: rgb(251, 251, 251); text-decoration-thickness: initial; text-decoration-style: initial; text-decoration-color: initial; float: none; display: inline !important;&quot;&gt;S3 Bucket&lt;/span&gt;&lt;/div&gt;&lt;span style=&quot;color: rgb(63, 63, 63); font-family: Helvetica; font-size: 12px; font-style: normal; font-variant-ligatures: normal; font-variant-caps: normal; font-weight: 400; letter-spacing: normal; orphans: 2; text-align: center; text-indent: 0px; text-transform: none; widows: 2; word-spacing: 0px; -webkit-text-stroke-width: 0px; white-space: nowrap; background-color: rgb(251, 251, 251); text-decoration-thickness: initial; text-decoration-style: initial; text-decoration-color: initial; float: none; display: inline !important;&quot;&gt;tf-remote-backends-ehb&lt;/span&gt;" style="sketch=0;outlineConnect=0;fontColor=#232F3E;gradientColor=none;fillColor=#7AA116;strokeColor=none;dashed=0;verticalLabelPosition=bottom;verticalAlign=top;align=center;html=1;fontSize=12;fontStyle=0;aspect=fixed;pointerEvents=1;shape=mxgraph.aws4.bucket;" parent="_ASd7ttjQse1Z8Tchp8T-4" vertex="1">
                    <mxGeometry x="91.73" y="66" width="36.54" height="38" as="geometry"/>
                </mxCell>
                <mxCell id="_ASd7ttjQse1Z8Tchp8T-7" value="terraform.tfstate" style="sketch=0;outlineConnect=0;fontColor=#232F3E;gradientColor=none;fillColor=#232F3D;strokeColor=none;dashed=0;verticalLabelPosition=bottom;verticalAlign=top;align=center;html=1;fontSize=12;fontStyle=0;aspect=fixed;pointerEvents=1;shape=mxgraph.aws4.document;" parent="_ASd7ttjQse1Z8Tchp8T-4" vertex="1">
                    <mxGeometry x="95.01999999999998" y="168" width="29.96" height="41" as="geometry"/>
                </mxCell>
                <mxCell id="_ASd7ttjQse1Z8Tchp8T-9" value="Encryption" style="sketch=0;outlineConnect=0;gradientColor=none;fillColor=#DD344C;strokeColor=none;dashed=0;verticalLabelPosition=bottom;verticalAlign=top;align=center;aspect=fixed;pointerEvents=1;shape=mxgraph.aws4.data_encryption_key;html=1;" parent="_ASd7ttjQse1Z8Tchp8T-4" vertex="1">
                    <mxGeometry x="317" y="49" width="26.23" height="33" as="geometry"/>
                </mxCell>
                <mxCell id="_ASd7ttjQse1Z8Tchp8T-10" value="Versioning" style="image;aspect=fixed;points=[];align=center;image=img/lib/azure2/general/Versions.svg;html=1;" parent="_ASd7ttjQse1Z8Tchp8T-4" vertex="1">
                    <mxGeometry x="314.16000000000025" y="113.5" width="27.9" height="27" as="geometry"/>
                </mxCell>
                <mxCell id="_ASd7ttjQse1Z8Tchp8T-11" value="State Lock" style="html=1;verticalLabelPosition=bottom;align=center;labelBackgroundColor=#ffffff;verticalAlign=top;strokeWidth=2;strokeColor=#0080F0;shadow=0;dashed=0;shape=mxgraph.ios7.icons.locked;" parent="_ASd7ttjQse1Z8Tchp8T-4" vertex="1">
                    <mxGeometry x="316" y="171" width="24" height="30" as="geometry"/>
                </mxCell>
                <mxCell id="2i4daaO1fAzA4-PC_4SC-1" style="edgeStyle=none;html=1;" parent="_ASd7ttjQse1Z8Tchp8T-3" source="rk6-1DMPQsgmVRxzv6lK-0" target="2i4daaO1fAzA4-PC_4SC-0" edge="1">
                    <mxGeometry relative="1" as="geometry"/>
                </mxCell>
                <mxCell id="rk6-1DMPQsgmVRxzv6lK-0" value="IAM User&lt;div&gt;Terraform User&lt;/div&gt;" style="sketch=0;outlineConnect=0;fontColor=#232F3E;gradientColor=none;fillColor=#DD344C;strokeColor=none;dashed=0;verticalLabelPosition=bottom;verticalAlign=top;align=center;html=1;fontSize=12;fontStyle=0;aspect=fixed;pointerEvents=1;shape=mxgraph.aws4.role;" parent="_ASd7ttjQse1Z8Tchp8T-3" vertex="1">
                    <mxGeometry x="93" y="64" width="33.68" height="19" as="geometry"/>
                </mxCell>
                <mxCell id="2i4daaO1fAzA4-PC_4SC-2" style="edgeStyle=none;html=1;" parent="_ASd7ttjQse1Z8Tchp8T-3" source="2i4daaO1fAzA4-PC_4SC-0" target="_ASd7ttjQse1Z8Tchp8T-8" edge="1">
                    <mxGeometry relative="1" as="geometry"/>
                </mxCell>
                <mxCell id="2i4daaO1fAzA4-PC_4SC-0" value="&lt;div&gt;IAM Role&lt;/div&gt;Administrative Access&amp;nbsp;" style="sketch=0;outlineConnect=0;fontColor=#232F3E;gradientColor=none;fillColor=#DD344C;strokeColor=none;dashed=0;verticalLabelPosition=bottom;verticalAlign=top;align=center;html=1;fontSize=12;fontStyle=0;aspect=fixed;pointerEvents=1;shape=mxgraph.aws4.long_term_security_credential;" parent="_ASd7ttjQse1Z8Tchp8T-3" vertex="1">
                    <mxGeometry x="212" y="58" width="35.04" height="31" as="geometry"/>
                </mxCell>
                <mxCell id="_ASd7ttjQse1Z8Tchp8T-12" style="edgeStyle=none;html=1;entryX=0;entryY=0.5;entryDx=0;entryDy=0;" parent="_ASd7ttjQse1Z8Tchp8T-1" source="_ASd7ttjQse1Z8Tchp8T-13" target="_ASd7ttjQse1Z8Tchp8T-3" edge="1">
                    <mxGeometry relative="1" as="geometry"/>
                </mxCell>
                <mxCell id="_ASd7ttjQse1Z8Tchp8T-13" value="Terraform CLI" style="shape=image;verticalLabelPosition=bottom;verticalAlign=top;imageAspect=0;aspect=fixed;image=data:image/svg+xml,PHN2ZyB4bWxucz0iaHR0cDovL3d3dy53My5vcmcvMjAwMC9zdmciIHZpZXdCb3g9IjAgNy41IDUwIDU3IiBoZWlnaHQ9IjU3IiB3aWR0aD0iNTAiIGlkPSJMb2dvcyI+PGRlZnM+PHN0eWxlPi5jbHMtMXtmaWxsOiM3YjQyYmM7ZmlsbC1ydWxlOmV2ZW5vZGQ7c3Ryb2tlLXdpZHRoOjBweDt9PC9zdHlsZT48L2RlZnM+PHBhdGggZD0iTTE3LjMsMTcuNWwxNS41LDl2MThsLTE1LjUtOXYtMThaIiBjbGFzcz0iY2xzLTEiLz48cGF0aCBkPSJNMzQuNSwyNi41djE4bDE1LjUtOXYtMThsLTE1LjUsOVoiIGNsYXNzPSJjbHMtMSIvPjxwYXRoIGQ9Ik0wLDcuNXYxOGwxNS41LDl2LTE4TDAsNy41WiIgY2xhc3M9ImNscy0xIi8+PHBhdGggZD0iTTE3LjMsNTUuNWwxNS41LDl2LTE4bC0xNS41LTl2MThaIiBjbGFzcz0iY2xzLTEiLz48L3N2Zz4=;" parent="_ASd7ttjQse1Z8Tchp8T-1" vertex="1">
                    <mxGeometry x="502" y="486" width="50" height="57" as="geometry"/>
                </mxCell>
                <mxCell id="_ASd7ttjQse1Z8Tchp8T-14" value="Developer A" style="sketch=0;outlineConnect=0;fontColor=#232F3E;gradientColor=none;fillColor=#232F3D;strokeColor=none;dashed=0;verticalLabelPosition=bottom;verticalAlign=top;align=center;html=1;fontSize=12;fontStyle=0;aspect=fixed;pointerEvents=1;shape=mxgraph.aws4.user;" parent="_ASd7ttjQse1Z8Tchp8T-1" vertex="1">
                    <mxGeometry x="82" y="495" width="39" height="39" as="geometry"/>
                </mxCell>
                <mxCell id="_ASd7ttjQse1Z8Tchp8T-15" style="edgeStyle=none;html=1;" parent="_ASd7ttjQse1Z8Tchp8T-1" source="_ASd7ttjQse1Z8Tchp8T-16" target="_ASd7ttjQse1Z8Tchp8T-17" edge="1">
                    <mxGeometry relative="1" as="geometry"/>
                </mxCell>
                <mxCell id="_ASd7ttjQse1Z8Tchp8T-16" value="Terraform&amp;nbsp;&lt;span style=&quot;background-color: transparent;&quot;&gt;Files&lt;/span&gt;" style="sketch=0;outlineConnect=0;fontColor=#232F3E;gradientColor=none;fillColor=#232F3D;strokeColor=none;dashed=0;verticalLabelPosition=bottom;verticalAlign=top;align=center;html=1;fontSize=12;fontStyle=0;aspect=fixed;pointerEvents=1;shape=mxgraph.aws4.documents3;" parent="_ASd7ttjQse1Z8Tchp8T-1" vertex="1">
                    <mxGeometry x="272" y="486" width="35.81" height="49" as="geometry"/>
                </mxCell>
                <mxCell id="_ASd7ttjQse1Z8Tchp8T-17" value="AWS CLI&amp;nbsp;&lt;span style=&quot;background-color: transparent;&quot;&gt;&amp;amp;&amp;nbsp;&lt;/span&gt;&lt;div&gt;&lt;span style=&quot;background-color: transparent;&quot;&gt;Access Key&lt;/span&gt;&lt;/div&gt;" style="sketch=0;points=[[0,0,0],[0.25,0,0],[0.5,0,0],[0.75,0,0],[1,0,0],[0,1,0],[0.25,1,0],[0.5,1,0],[0.75,1,0],[1,1,0],[0,0.25,0],[0,0.5,0],[0,0.75,0],[1,0.25,0],[1,0.5,0],[1,0.75,0]];points=[[0,0,0],[0.25,0,0],[0.5,0,0],[0.75,0,0],[1,0,0],[0,1,0],[0.25,1,0],[0.5,1,0],[0.75,1,0],[1,1,0],[0,0.25,0],[0,0.5,0],[0,0.75,0],[1,0.25,0],[1,0.5,0],[1,0.75,0]];outlineConnect=0;fontColor=#232F3E;fillColor=#E7157B;strokeColor=#ffffff;dashed=0;verticalLabelPosition=bottom;verticalAlign=top;align=center;html=1;fontSize=12;fontStyle=0;aspect=fixed;shape=mxgraph.aws4.resourceIcon;resIcon=mxgraph.aws4.command_line_interface;" parent="_ASd7ttjQse1Z8Tchp8T-1" vertex="1">
                    <mxGeometry x="392" y="489" width="43" height="43" as="geometry"/>
                </mxCell>
                <mxCell id="_ASd7ttjQse1Z8Tchp8T-18" style="edgeStyle=none;html=1;exitX=1;exitY=0.5;exitDx=0;exitDy=0;exitPerimeter=0;entryX=-0.04;entryY=0.404;entryDx=0;entryDy=0;entryPerimeter=0;" parent="_ASd7ttjQse1Z8Tchp8T-1" source="_ASd7ttjQse1Z8Tchp8T-17" target="_ASd7ttjQse1Z8Tchp8T-13" edge="1">
                    <mxGeometry relative="1" as="geometry"/>
                </mxCell>
                <mxCell id="_ASd7ttjQse1Z8Tchp8T-19" style="edgeStyle=none;html=1;entryX=0.002;entryY=0.467;entryDx=0;entryDy=0;entryPerimeter=0;" parent="_ASd7ttjQse1Z8Tchp8T-1" source="_ASd7ttjQse1Z8Tchp8T-14" target="_ASd7ttjQse1Z8Tchp8T-2" edge="1">
                    <mxGeometry relative="1" as="geometry"/>
                </mxCell>
                <mxCell id="_ASd7ttjQse1Z8Tchp8T-20" value="Local Development Environment" style="fillColor=none;strokeColor=#5A6C86;dashed=1;verticalAlign=top;fontStyle=0;fontColor=#5A6C86;whiteSpace=wrap;html=1;" parent="_ASd7ttjQse1Z8Tchp8T-1" vertex="1">
                    <mxGeometry x="202" y="728" width="430" height="191" as="geometry"/>
                </mxCell>
                <mxCell id="_ASd7ttjQse1Z8Tchp8T-21" style="edgeStyle=none;html=1;exitX=1;exitY=0.5;exitDx=0;exitDy=0;entryX=0;entryY=0.5;entryDx=0;entryDy=0;" parent="_ASd7ttjQse1Z8Tchp8T-1" source="_ASd7ttjQse1Z8Tchp8T-22" target="_ASd7ttjQse1Z8Tchp8T-3" edge="1">
                    <mxGeometry relative="1" as="geometry"/>
                </mxCell>
                <mxCell id="_ASd7ttjQse1Z8Tchp8T-22" value="Terraform CLI" style="shape=image;verticalLabelPosition=bottom;verticalAlign=top;imageAspect=0;aspect=fixed;image=data:image/svg+xml,PHN2ZyB4bWxucz0iaHR0cDovL3d3dy53My5vcmcvMjAwMC9zdmciIHZpZXdCb3g9IjAgNy41IDUwIDU3IiBoZWlnaHQ9IjU3IiB3aWR0aD0iNTAiIGlkPSJMb2dvcyI+PGRlZnM+PHN0eWxlPi5jbHMtMXtmaWxsOiM3YjQyYmM7ZmlsbC1ydWxlOmV2ZW5vZGQ7c3Ryb2tlLXdpZHRoOjBweDt9PC9zdHlsZT48L2RlZnM+PHBhdGggZD0iTTE3LjMsMTcuNWwxNS41LDl2MThsLTE1LjUtOXYtMThaIiBjbGFzcz0iY2xzLTEiLz48cGF0aCBkPSJNMzQuNSwyNi41djE4bDE1LjUtOXYtMThsLTE1LjUsOVoiIGNsYXNzPSJjbHMtMSIvPjxwYXRoIGQ9Ik0wLDcuNXYxOGwxNS41LDl2LTE4TDAsNy41WiIgY2xhc3M9ImNscy0xIi8+PHBhdGggZD0iTTE3LjMsNTUuNWwxNS41LDl2LTE4bC0xNS41LTl2MThaIiBjbGFzcz0iY2xzLTEiLz48L3N2Zz4=;" parent="_ASd7ttjQse1Z8Tchp8T-1" vertex="1">
                    <mxGeometry x="502" y="791" width="50" height="57" as="geometry"/>
                </mxCell>
                <mxCell id="_ASd7ttjQse1Z8Tchp8T-23" value="Developer B" style="sketch=0;outlineConnect=0;fontColor=#232F3E;gradientColor=none;fillColor=#232F3D;strokeColor=none;dashed=0;verticalLabelPosition=bottom;verticalAlign=top;align=center;html=1;fontSize=12;fontStyle=0;aspect=fixed;pointerEvents=1;shape=mxgraph.aws4.user;" parent="_ASd7ttjQse1Z8Tchp8T-1" vertex="1">
                    <mxGeometry x="75" y="798" width="39" height="39" as="geometry"/>
                </mxCell>
                <mxCell id="_ASd7ttjQse1Z8Tchp8T-24" style="edgeStyle=none;html=1;" parent="_ASd7ttjQse1Z8Tchp8T-1" source="_ASd7ttjQse1Z8Tchp8T-25" target="_ASd7ttjQse1Z8Tchp8T-26" edge="1">
                    <mxGeometry relative="1" as="geometry"/>
                </mxCell>
                <mxCell id="_ASd7ttjQse1Z8Tchp8T-25" value="Terraform&amp;nbsp;&lt;span style=&quot;background-color: transparent;&quot;&gt;Files&lt;/span&gt;" style="sketch=0;outlineConnect=0;fontColor=#232F3E;gradientColor=none;fillColor=#232F3D;strokeColor=none;dashed=0;verticalLabelPosition=bottom;verticalAlign=top;align=center;html=1;fontSize=12;fontStyle=0;aspect=fixed;pointerEvents=1;shape=mxgraph.aws4.documents3;" parent="_ASd7ttjQse1Z8Tchp8T-1" vertex="1">
                    <mxGeometry x="272" y="791" width="35.81" height="49" as="geometry"/>
                </mxCell>
                <mxCell id="_ASd7ttjQse1Z8Tchp8T-26" value="AWS CLI&amp;nbsp;&lt;span style=&quot;background-color: transparent;&quot;&gt;&amp;amp;&amp;nbsp;&lt;/span&gt;&lt;div&gt;&lt;span style=&quot;background-color: transparent;&quot;&gt;Access Key&lt;/span&gt;&lt;/div&gt;" style="sketch=0;points=[[0,0,0],[0.25,0,0],[0.5,0,0],[0.75,0,0],[1,0,0],[0,1,0],[0.25,1,0],[0.5,1,0],[0.75,1,0],[1,1,0],[0,0.25,0],[0,0.5,0],[0,0.75,0],[1,0.25,0],[1,0.5,0],[1,0.75,0]];points=[[0,0,0],[0.25,0,0],[0.5,0,0],[0.75,0,0],[1,0,0],[0,1,0],[0.25,1,0],[0.5,1,0],[0.75,1,0],[1,1,0],[0,0.25,0],[0,0.5,0],[0,0.75,0],[1,0.25,0],[1,0.5,0],[1,0.75,0]];outlineConnect=0;fontColor=#232F3E;fillColor=#E7157B;strokeColor=#ffffff;dashed=0;verticalLabelPosition=bottom;verticalAlign=top;align=center;html=1;fontSize=12;fontStyle=0;aspect=fixed;shape=mxgraph.aws4.resourceIcon;resIcon=mxgraph.aws4.command_line_interface;" parent="_ASd7ttjQse1Z8Tchp8T-1" vertex="1">
                    <mxGeometry x="392" y="794" width="43" height="43" as="geometry"/>
                </mxCell>
                <mxCell id="_ASd7ttjQse1Z8Tchp8T-27" style="edgeStyle=none;html=1;exitX=1;exitY=0.5;exitDx=0;exitDy=0;exitPerimeter=0;entryX=-0.04;entryY=0.404;entryDx=0;entryDy=0;entryPerimeter=0;" parent="_ASd7ttjQse1Z8Tchp8T-1" source="_ASd7ttjQse1Z8Tchp8T-26" target="_ASd7ttjQse1Z8Tchp8T-22" edge="1">
                    <mxGeometry relative="1" as="geometry"/>
                </mxCell>
                <mxCell id="_ASd7ttjQse1Z8Tchp8T-28" style="edgeStyle=none;html=1;entryX=0.002;entryY=0.467;entryDx=0;entryDy=0;entryPerimeter=0;" parent="_ASd7ttjQse1Z8Tchp8T-1" source="_ASd7ttjQse1Z8Tchp8T-23" target="_ASd7ttjQse1Z8Tchp8T-20" edge="1">
                    <mxGeometry relative="1" as="geometry"/>
                </mxCell>
                <mxCell id="ByG2kk1BWm8WUh_A17BU-0" value="tf-aws-setup-maturity-lvl-0-solution-remote-backend.png" style="text;" parent="_ASd7ttjQse1Z8Tchp8T-1" vertex="1">
                    <mxGeometry x="19.640963040865245" y="86.25639460637012" width="315" height="26" as="geometry"/>
                </mxCell>
            </root>
        </mxGraphModel>
    </diagram>
    <diagram id="q5pSxBfpz4YL3xW1C_LK" name="tf-aws-setup-maturity-level-0-problem">
        <mxGraphModel grid="0" page="0" gridSize="10" guides="1" tooltips="1" connect="1" arrows="1" fold="1" pageScale="1" pageWidth="1100" pageHeight="850" background="#ffffff" math="0" shadow="0">
            <root>
                <mxCell id="0"/>
                <mxCell id="1" parent="0"/>
                <mxCell id="9" value="Local Development Environment" style="fillColor=none;strokeColor=#5A6C86;dashed=1;verticalAlign=top;fontStyle=0;fontColor=#5A6C86;whiteSpace=wrap;html=1;" parent="1" vertex="1">
                    <mxGeometry x="154" y="287" width="430" height="270" as="geometry"/>
                </mxCell>
                <mxCell id="2" value="AWS Account" style="points=[[0,0],[0.25,0],[0.5,0],[0.75,0],[1,0],[1,0.25],[1,0.5],[1,0.75],[1,1],[0.75,1],[0.5,1],[0.25,1],[0,1],[0,0.75],[0,0.5],[0,0.25]];outlineConnect=0;gradientColor=none;html=1;whiteSpace=wrap;fontSize=12;fontStyle=0;container=1;pointerEvents=0;collapsible=0;recursiveResize=0;shape=mxgraph.aws4.group;grIcon=mxgraph.aws4.group_account;strokeColor=#CD2264;fillColor=none;verticalAlign=top;align=left;spacingLeft=30;fontColor=#CD2264;dashed=0;" parent="1" vertex="1">
                    <mxGeometry x="767" y="407" width="320" height="240" as="geometry"/>
                </mxCell>
                <mxCell id="5" value="eu-west-1" style="points=[[0,0],[0.25,0],[0.5,0],[0.75,0],[1,0],[1,0.25],[1,0.5],[1,0.75],[1,1],[0.75,1],[0.5,1],[0.25,1],[0,1],[0,0.75],[0,0.5],[0,0.25]];outlineConnect=0;gradientColor=none;html=1;whiteSpace=wrap;fontSize=12;fontStyle=0;container=1;pointerEvents=0;collapsible=0;recursiveResize=0;shape=mxgraph.aws4.group;grIcon=mxgraph.aws4.group_region;strokeColor=#00A4A6;fillColor=none;verticalAlign=top;align=left;spacingLeft=30;fontColor=#147EBA;dashed=1;" parent="2" vertex="1">
                    <mxGeometry x="40" y="40" width="220" height="160" as="geometry"/>
                </mxCell>
                <mxCell id="13" value="&lt;div&gt;&lt;span style=&quot;color: rgb(63, 63, 63); font-family: Helvetica; font-size: 12px; font-style: normal; font-variant-ligatures: normal; font-variant-caps: normal; font-weight: 400; letter-spacing: normal; orphans: 2; text-align: center; text-indent: 0px; text-transform: none; widows: 2; word-spacing: 0px; -webkit-text-stroke-width: 0px; white-space: nowrap; background-color: rgb(251, 251, 251); text-decoration-thickness: initial; text-decoration-style: initial; text-decoration-color: initial; float: none; display: inline !important;&quot;&gt;S3 Bucket&lt;/span&gt;&lt;/div&gt;&lt;span style=&quot;color: rgb(63, 63, 63); font-family: Helvetica; font-size: 12px; font-style: normal; font-variant-ligatures: normal; font-variant-caps: normal; font-weight: 400; letter-spacing: normal; orphans: 2; text-align: center; text-indent: 0px; text-transform: none; widows: 2; word-spacing: 0px; -webkit-text-stroke-width: 0px; white-space: nowrap; background-color: rgb(251, 251, 251); text-decoration-thickness: initial; text-decoration-style: initial; text-decoration-color: initial; float: none; display: inline !important;&quot;&gt;my-tf-test-x&lt;/span&gt;" style="sketch=0;outlineConnect=0;fontColor=#232F3E;gradientColor=none;fillColor=#7AA116;strokeColor=none;dashed=0;verticalLabelPosition=bottom;verticalAlign=top;align=center;html=1;fontSize=12;fontStyle=0;aspect=fixed;pointerEvents=1;shape=mxgraph.aws4.bucket;" parent="5" vertex="1">
                    <mxGeometry x="91.73" y="66" width="36.54" height="38" as="geometry"/>
                </mxCell>
                <mxCell id="21" style="edgeStyle=none;html=1;entryX=0;entryY=0.5;entryDx=0;entryDy=0;" parent="1" source="6" target="2" edge="1">
                    <mxGeometry relative="1" as="geometry"/>
                </mxCell>
                <mxCell id="24" style="edgeStyle=none;html=1;shadow=0;strokeColor=default;endArrow=none;endFill=0;dashed=1;" parent="1" source="6" target="23" edge="1">
                    <mxGeometry relative="1" as="geometry"/>
                </mxCell>
                <mxCell id="6" value="Terraform CLI" style="shape=image;verticalLabelPosition=bottom;verticalAlign=top;imageAspect=0;aspect=fixed;image=data:image/svg+xml,PHN2ZyB4bWxucz0iaHR0cDovL3d3dy53My5vcmcvMjAwMC9zdmciIHZpZXdCb3g9IjAgNy41IDUwIDU3IiBoZWlnaHQ9IjU3IiB3aWR0aD0iNTAiIGlkPSJMb2dvcyI+PGRlZnM+PHN0eWxlPi5jbHMtMXtmaWxsOiM3YjQyYmM7ZmlsbC1ydWxlOmV2ZW5vZGQ7c3Ryb2tlLXdpZHRoOjBweDt9PC9zdHlsZT48L2RlZnM+PHBhdGggZD0iTTE3LjMsMTcuNWwxNS41LDl2MThsLTE1LjUtOXYtMThaIiBjbGFzcz0iY2xzLTEiLz48cGF0aCBkPSJNMzQuNSwyNi41djE4bDE1LjUtOXYtMThsLTE1LjUsOVoiIGNsYXNzPSJjbHMtMSIvPjxwYXRoIGQ9Ik0wLDcuNXYxOGwxNS41LDl2LTE4TDAsNy41WiIgY2xhc3M9ImNscy0xIi8+PHBhdGggZD0iTTE3LjMsNTUuNWwxNS41LDl2LTE4bC0xNS41LTl2MThaIiBjbGFzcz0iY2xzLTEiLz48L3N2Zz4=;" parent="1" vertex="1">
                    <mxGeometry x="454" y="350" width="50" height="57" as="geometry"/>
                </mxCell>
                <mxCell id="7" value="Developer A" style="sketch=0;outlineConnect=0;fontColor=#232F3E;gradientColor=none;fillColor=#232F3D;strokeColor=none;dashed=0;verticalLabelPosition=bottom;verticalAlign=top;align=center;html=1;fontSize=12;fontStyle=0;aspect=fixed;pointerEvents=1;shape=mxgraph.aws4.user;" parent="1" vertex="1">
                    <mxGeometry x="34" y="393" width="39" height="39" as="geometry"/>
                </mxCell>
                <mxCell id="19" style="edgeStyle=none;html=1;" parent="1" source="10" target="18" edge="1">
                    <mxGeometry relative="1" as="geometry"/>
                </mxCell>
                <mxCell id="10" value="Terraform&amp;nbsp;&lt;span style=&quot;background-color: transparent;&quot;&gt;Files&lt;/span&gt;" style="sketch=0;outlineConnect=0;fontColor=#232F3E;gradientColor=none;fillColor=#232F3D;strokeColor=none;dashed=0;verticalLabelPosition=bottom;verticalAlign=top;align=center;html=1;fontSize=12;fontStyle=0;aspect=fixed;pointerEvents=1;shape=mxgraph.aws4.documents3;" parent="1" vertex="1">
                    <mxGeometry x="224" y="350" width="35.81" height="49" as="geometry"/>
                </mxCell>
                <mxCell id="18" value="AWS CLI&amp;nbsp;&lt;span style=&quot;background-color: transparent;&quot;&gt;&amp;amp;&amp;nbsp;&lt;/span&gt;&lt;div&gt;&lt;span style=&quot;background-color: transparent;&quot;&gt;Access Key&lt;/span&gt;&lt;/div&gt;" style="sketch=0;points=[[0,0,0],[0.25,0,0],[0.5,0,0],[0.75,0,0],[1,0,0],[0,1,0],[0.25,1,0],[0.5,1,0],[0.75,1,0],[1,1,0],[0,0.25,0],[0,0.5,0],[0,0.75,0],[1,0.25,0],[1,0.5,0],[1,0.75,0]];points=[[0,0,0],[0.25,0,0],[0.5,0,0],[0.75,0,0],[1,0,0],[0,1,0],[0.25,1,0],[0.5,1,0],[0.75,1,0],[1,1,0],[0,0.25,0],[0,0.5,0],[0,0.75,0],[1,0.25,0],[1,0.5,0],[1,0.75,0]];outlineConnect=0;fontColor=#232F3E;fillColor=#E7157B;strokeColor=#ffffff;dashed=0;verticalLabelPosition=bottom;verticalAlign=top;align=center;html=1;fontSize=12;fontStyle=0;aspect=fixed;shape=mxgraph.aws4.resourceIcon;resIcon=mxgraph.aws4.command_line_interface;" parent="1" vertex="1">
                    <mxGeometry x="344" y="353" width="43" height="43" as="geometry"/>
                </mxCell>
                <mxCell id="20" style="edgeStyle=none;html=1;exitX=1;exitY=0.5;exitDx=0;exitDy=0;exitPerimeter=0;entryX=-0.04;entryY=0.404;entryDx=0;entryDy=0;entryPerimeter=0;" parent="1" source="18" target="6" edge="1">
                    <mxGeometry relative="1" as="geometry"/>
                </mxCell>
                <mxCell id="22" style="edgeStyle=none;html=1;entryX=0.002;entryY=0.467;entryDx=0;entryDy=0;entryPerimeter=0;" parent="1" source="7" target="9" edge="1">
                    <mxGeometry relative="1" as="geometry"/>
                </mxCell>
                <mxCell id="23" value="terraform.tfstate" style="sketch=0;outlineConnect=0;fontColor=#232F3E;gradientColor=none;fillColor=#232F3D;strokeColor=none;dashed=0;verticalLabelPosition=bottom;verticalAlign=top;align=center;html=1;fontSize=12;fontStyle=0;aspect=fixed;pointerEvents=1;shape=mxgraph.aws4.document;" parent="1" vertex="1">
                    <mxGeometry x="462.66" y="453" width="29.96" height="41" as="geometry"/>
                </mxCell>
                <mxCell id="40" value="Local Development Environment" style="fillColor=none;strokeColor=#5A6C86;dashed=1;verticalAlign=top;fontStyle=0;fontColor=#5A6C86;whiteSpace=wrap;html=1;" parent="1" vertex="1">
                    <mxGeometry x="154" y="592" width="430" height="270" as="geometry"/>
                </mxCell>
                <mxCell id="41" style="edgeStyle=none;html=1;shadow=0;strokeColor=default;endArrow=none;endFill=0;dashed=1;" parent="1" source="42" target="49" edge="1">
                    <mxGeometry relative="1" as="geometry"/>
                </mxCell>
                <mxCell id="50" style="edgeStyle=none;html=1;exitX=1;exitY=0.5;exitDx=0;exitDy=0;entryX=0;entryY=0.5;entryDx=0;entryDy=0;" parent="1" source="42" target="2" edge="1">
                    <mxGeometry relative="1" as="geometry"/>
                </mxCell>
                <mxCell id="42" value="Terraform CLI" style="shape=image;verticalLabelPosition=bottom;verticalAlign=top;imageAspect=0;aspect=fixed;image=data:image/svg+xml,PHN2ZyB4bWxucz0iaHR0cDovL3d3dy53My5vcmcvMjAwMC9zdmciIHZpZXdCb3g9IjAgNy41IDUwIDU3IiBoZWlnaHQ9IjU3IiB3aWR0aD0iNTAiIGlkPSJMb2dvcyI+PGRlZnM+PHN0eWxlPi5jbHMtMXtmaWxsOiM3YjQyYmM7ZmlsbC1ydWxlOmV2ZW5vZGQ7c3Ryb2tlLXdpZHRoOjBweDt9PC9zdHlsZT48L2RlZnM+PHBhdGggZD0iTTE3LjMsMTcuNWwxNS41LDl2MThsLTE1LjUtOXYtMThaIiBjbGFzcz0iY2xzLTEiLz48cGF0aCBkPSJNMzQuNSwyNi41djE4bDE1LjUtOXYtMThsLTE1LjUsOVoiIGNsYXNzPSJjbHMtMSIvPjxwYXRoIGQ9Ik0wLDcuNXYxOGwxNS41LDl2LTE4TDAsNy41WiIgY2xhc3M9ImNscy0xIi8+PHBhdGggZD0iTTE3LjMsNTUuNWwxNS41LDl2LTE4bC0xNS41LTl2MThaIiBjbGFzcz0iY2xzLTEiLz48L3N2Zz4=;" parent="1" vertex="1">
                    <mxGeometry x="454" y="655" width="50" height="57" as="geometry"/>
                </mxCell>
                <mxCell id="43" value="Developer B" style="sketch=0;outlineConnect=0;fontColor=#232F3E;gradientColor=none;fillColor=#232F3D;strokeColor=none;dashed=0;verticalLabelPosition=bottom;verticalAlign=top;align=center;html=1;fontSize=12;fontStyle=0;aspect=fixed;pointerEvents=1;shape=mxgraph.aws4.user;" parent="1" vertex="1">
                    <mxGeometry x="34" y="698" width="39" height="39" as="geometry"/>
                </mxCell>
                <mxCell id="44" style="edgeStyle=none;html=1;" parent="1" source="45" target="46" edge="1">
                    <mxGeometry relative="1" as="geometry"/>
                </mxCell>
                <mxCell id="45" value="Terraform&amp;nbsp;&lt;span style=&quot;background-color: transparent;&quot;&gt;Files&lt;/span&gt;" style="sketch=0;outlineConnect=0;fontColor=#232F3E;gradientColor=none;fillColor=#232F3D;strokeColor=none;dashed=0;verticalLabelPosition=bottom;verticalAlign=top;align=center;html=1;fontSize=12;fontStyle=0;aspect=fixed;pointerEvents=1;shape=mxgraph.aws4.documents3;" parent="1" vertex="1">
                    <mxGeometry x="224" y="655" width="35.81" height="49" as="geometry"/>
                </mxCell>
                <mxCell id="46" value="AWS CLI&amp;nbsp;&lt;span style=&quot;background-color: transparent;&quot;&gt;&amp;amp;&amp;nbsp;&lt;/span&gt;&lt;div&gt;&lt;span style=&quot;background-color: transparent;&quot;&gt;Access Key&lt;/span&gt;&lt;/div&gt;" style="sketch=0;points=[[0,0,0],[0.25,0,0],[0.5,0,0],[0.75,0,0],[1,0,0],[0,1,0],[0.25,1,0],[0.5,1,0],[0.75,1,0],[1,1,0],[0,0.25,0],[0,0.5,0],[0,0.75,0],[1,0.25,0],[1,0.5,0],[1,0.75,0]];points=[[0,0,0],[0.25,0,0],[0.5,0,0],[0.75,0,0],[1,0,0],[0,1,0],[0.25,1,0],[0.5,1,0],[0.75,1,0],[1,1,0],[0,0.25,0],[0,0.5,0],[0,0.75,0],[1,0.25,0],[1,0.5,0],[1,0.75,0]];outlineConnect=0;fontColor=#232F3E;fillColor=#E7157B;strokeColor=#ffffff;dashed=0;verticalLabelPosition=bottom;verticalAlign=top;align=center;html=1;fontSize=12;fontStyle=0;aspect=fixed;shape=mxgraph.aws4.resourceIcon;resIcon=mxgraph.aws4.command_line_interface;" parent="1" vertex="1">
                    <mxGeometry x="344" y="658" width="43" height="43" as="geometry"/>
                </mxCell>
                <mxCell id="47" style="edgeStyle=none;html=1;exitX=1;exitY=0.5;exitDx=0;exitDy=0;exitPerimeter=0;entryX=-0.04;entryY=0.404;entryDx=0;entryDy=0;entryPerimeter=0;" parent="1" source="46" target="42" edge="1">
                    <mxGeometry relative="1" as="geometry"/>
                </mxCell>
                <mxCell id="48" style="edgeStyle=none;html=1;entryX=0.002;entryY=0.467;entryDx=0;entryDy=0;entryPerimeter=0;" parent="1" source="43" target="40" edge="1">
                    <mxGeometry relative="1" as="geometry"/>
                </mxCell>
                <mxCell id="49" value="terraform.tfstate" style="sketch=0;outlineConnect=0;fontColor=#232F3E;gradientColor=none;fillColor=#232F3D;strokeColor=none;dashed=0;verticalLabelPosition=bottom;verticalAlign=top;align=center;html=1;fontSize=12;fontStyle=0;aspect=fixed;pointerEvents=1;shape=mxgraph.aws4.document;" parent="1" vertex="1">
                    <mxGeometry x="462.66" y="758" width="29.96" height="41" as="geometry"/>
                </mxCell>
                <mxCell id="53" value="&lt;div style=&quot;&quot;&gt;&lt;span style=&quot;background-color: transparent;&quot;&gt;&lt;font&gt;&lt;font style=&quot;color: rgb(255, 0, 0);&quot;&gt;Problem&lt;/font&gt;: developers cannot work on the same infrastructure as they don&#39;t have access to the same State File.&lt;/font&gt;&lt;/span&gt;&lt;/div&gt;" style="shape=note;size=20;whiteSpace=wrap;html=1;align=center;" parent="1" vertex="1">
                    <mxGeometry x="767" y="703" width="180" height="121" as="geometry"/>
                </mxCell>
                <mxCell id="56" value="&lt;div style=&quot;&quot;&gt;&lt;span style=&quot;background-color: transparent;&quot;&gt;&lt;font&gt;&lt;font style=&quot;color: rgb(0, 153, 0);&quot;&gt;Solution&lt;/font&gt;: a shared location where the State File is stored and can be accessed by developers and or machine users.&lt;/font&gt;&lt;/span&gt;&lt;/div&gt;" style="shape=note;size=20;whiteSpace=wrap;html=1;align=center;" parent="1" vertex="1">
                    <mxGeometry x="969" y="701" width="180" height="121" as="geometry"/>
                </mxCell>
            </root>
        </mxGraphModel>
    </diagram>
    <diagram id="PkhosA4qJehzKThrB8xl" name="tf-aws-setup-maturiy-level-0">
        <mxGraphModel dx="692" dy="322" grid="0" gridSize="10" guides="1" tooltips="1" connect="1" arrows="1" fold="1" page="0" pageScale="1" pageWidth="1100" pageHeight="850" background="#ffffff" math="0" shadow="0">
            <root>
                <mxCell id="0"/>
                <mxCell id="1" parent="0"/>
                <mxCell id="BXp47FkMODcyS4w8nFmD-1" value="Local Development Environment" style="fillColor=none;strokeColor=#5A6C86;dashed=1;verticalAlign=top;fontStyle=0;fontColor=#5A6C86;whiteSpace=wrap;html=1;" parent="1" vertex="1">
                    <mxGeometry x="154" y="287" width="430" height="270" as="geometry"/>
                </mxCell>
                <mxCell id="BXp47FkMODcyS4w8nFmD-2" value="AWS Account" style="points=[[0,0],[0.25,0],[0.5,0],[0.75,0],[1,0],[1,0.25],[1,0.5],[1,0.75],[1,1],[0.75,1],[0.5,1],[0.25,1],[0,1],[0,0.75],[0,0.5],[0,0.25]];outlineConnect=0;gradientColor=none;html=1;whiteSpace=wrap;fontSize=12;fontStyle=0;container=1;pointerEvents=0;collapsible=0;recursiveResize=0;shape=mxgraph.aws4.group;grIcon=mxgraph.aws4.group_account;strokeColor=#CD2264;fillColor=none;verticalAlign=top;align=left;spacingLeft=30;fontColor=#CD2264;dashed=0;" parent="1" vertex="1">
                    <mxGeometry x="684" y="257" width="320" height="240" as="geometry"/>
                </mxCell>
                <mxCell id="BXp47FkMODcyS4w8nFmD-3" value="eu-west-1" style="points=[[0,0],[0.25,0],[0.5,0],[0.75,0],[1,0],[1,0.25],[1,0.5],[1,0.75],[1,1],[0.75,1],[0.5,1],[0.25,1],[0,1],[0,0.75],[0,0.5],[0,0.25]];outlineConnect=0;gradientColor=none;html=1;whiteSpace=wrap;fontSize=12;fontStyle=0;container=1;pointerEvents=0;collapsible=0;recursiveResize=0;shape=mxgraph.aws4.group;grIcon=mxgraph.aws4.group_region;strokeColor=#00A4A6;fillColor=none;verticalAlign=top;align=left;spacingLeft=30;fontColor=#147EBA;dashed=1;" parent="BXp47FkMODcyS4w8nFmD-2" vertex="1">
                    <mxGeometry x="40" y="40" width="220" height="160" as="geometry"/>
                </mxCell>
                <mxCell id="BXp47FkMODcyS4w8nFmD-4" value="&lt;div&gt;&lt;span style=&quot;color: rgb(63, 63, 63); font-family: Helvetica; font-size: 12px; font-style: normal; font-variant-ligatures: normal; font-variant-caps: normal; font-weight: 400; letter-spacing: normal; orphans: 2; text-align: center; text-indent: 0px; text-transform: none; widows: 2; word-spacing: 0px; -webkit-text-stroke-width: 0px; white-space: nowrap; background-color: rgb(251, 251, 251); text-decoration-thickness: initial; text-decoration-style: initial; text-decoration-color: initial; float: none; display: inline !important;&quot;&gt;S3 Bucket&lt;/span&gt;&lt;/div&gt;&lt;span style=&quot;color: rgb(63, 63, 63); font-family: Helvetica; font-size: 12px; font-style: normal; font-variant-ligatures: normal; font-variant-caps: normal; font-weight: 400; letter-spacing: normal; orphans: 2; text-align: center; text-indent: 0px; text-transform: none; widows: 2; word-spacing: 0px; -webkit-text-stroke-width: 0px; white-space: nowrap; background-color: rgb(251, 251, 251); text-decoration-thickness: initial; text-decoration-style: initial; text-decoration-color: initial; float: none; display: inline !important;&quot;&gt;my-tf-test-x&lt;/span&gt;" style="sketch=0;outlineConnect=0;fontColor=#232F3E;gradientColor=none;fillColor=#7AA116;strokeColor=none;dashed=0;verticalLabelPosition=bottom;verticalAlign=top;align=center;html=1;fontSize=12;fontStyle=0;aspect=fixed;pointerEvents=1;shape=mxgraph.aws4.bucket;" parent="BXp47FkMODcyS4w8nFmD-3" vertex="1">
                    <mxGeometry x="91.73" y="66" width="36.54" height="38" as="geometry"/>
                </mxCell>
                <mxCell id="BXp47FkMODcyS4w8nFmD-5" style="edgeStyle=none;html=1;entryX=0;entryY=0.5;entryDx=0;entryDy=0;" parent="1" source="BXp47FkMODcyS4w8nFmD-7" target="BXp47FkMODcyS4w8nFmD-2" edge="1">
                    <mxGeometry relative="1" as="geometry"/>
                </mxCell>
                <mxCell id="BXp47FkMODcyS4w8nFmD-6" style="edgeStyle=none;html=1;shadow=0;strokeColor=default;endArrow=none;endFill=0;dashed=1;" parent="1" source="BXp47FkMODcyS4w8nFmD-7" target="BXp47FkMODcyS4w8nFmD-14" edge="1">
                    <mxGeometry relative="1" as="geometry"/>
                </mxCell>
                <mxCell id="BXp47FkMODcyS4w8nFmD-7" value="Terraform CLI" style="shape=image;verticalLabelPosition=bottom;verticalAlign=top;imageAspect=0;aspect=fixed;image=data:image/svg+xml,PHN2ZyB4bWxucz0iaHR0cDovL3d3dy53My5vcmcvMjAwMC9zdmciIHZpZXdCb3g9IjAgNy41IDUwIDU3IiBoZWlnaHQ9IjU3IiB3aWR0aD0iNTAiIGlkPSJMb2dvcyI+PGRlZnM+PHN0eWxlPi5jbHMtMXtmaWxsOiM3YjQyYmM7ZmlsbC1ydWxlOmV2ZW5vZGQ7c3Ryb2tlLXdpZHRoOjBweDt9PC9zdHlsZT48L2RlZnM+PHBhdGggZD0iTTE3LjMsMTcuNWwxNS41LDl2MThsLTE1LjUtOXYtMThaIiBjbGFzcz0iY2xzLTEiLz48cGF0aCBkPSJNMzQuNSwyNi41djE4bDE1LjUtOXYtMThsLTE1LjUsOVoiIGNsYXNzPSJjbHMtMSIvPjxwYXRoIGQ9Ik0wLDcuNXYxOGwxNS41LDl2LTE4TDAsNy41WiIgY2xhc3M9ImNscy0xIi8+PHBhdGggZD0iTTE3LjMsNTUuNWwxNS41LDl2LTE4bC0xNS41LTl2MThaIiBjbGFzcz0iY2xzLTEiLz48L3N2Zz4=;" parent="1" vertex="1">
                    <mxGeometry x="454" y="350" width="50" height="57" as="geometry"/>
                </mxCell>
                <mxCell id="BXp47FkMODcyS4w8nFmD-8" value="Developer" style="sketch=0;outlineConnect=0;fontColor=#232F3E;gradientColor=none;fillColor=#232F3D;strokeColor=none;dashed=0;verticalLabelPosition=bottom;verticalAlign=top;align=center;html=1;fontSize=12;fontStyle=0;aspect=fixed;pointerEvents=1;shape=mxgraph.aws4.user;" parent="1" vertex="1">
                    <mxGeometry x="34" y="393" width="39" height="39" as="geometry"/>
                </mxCell>
                <mxCell id="BXp47FkMODcyS4w8nFmD-9" style="edgeStyle=none;html=1;" parent="1" source="BXp47FkMODcyS4w8nFmD-10" target="BXp47FkMODcyS4w8nFmD-11" edge="1">
                    <mxGeometry relative="1" as="geometry"/>
                </mxCell>
                <mxCell id="BXp47FkMODcyS4w8nFmD-10" value="Terraform&amp;nbsp;&lt;span style=&quot;background-color: transparent;&quot;&gt;Files&lt;/span&gt;" style="sketch=0;outlineConnect=0;fontColor=#232F3E;gradientColor=none;fillColor=#232F3D;strokeColor=none;dashed=0;verticalLabelPosition=bottom;verticalAlign=top;align=center;html=1;fontSize=12;fontStyle=0;aspect=fixed;pointerEvents=1;shape=mxgraph.aws4.documents3;" parent="1" vertex="1">
                    <mxGeometry x="224" y="350" width="35.81" height="49" as="geometry"/>
                </mxCell>
                <mxCell id="BXp47FkMODcyS4w8nFmD-11" value="AWS CLI&amp;nbsp;&lt;span style=&quot;background-color: transparent;&quot;&gt;&amp;amp;&amp;nbsp;&lt;/span&gt;&lt;div&gt;&lt;span style=&quot;background-color: transparent;&quot;&gt;Access Key&lt;/span&gt;&lt;/div&gt;" style="sketch=0;points=[[0,0,0],[0.25,0,0],[0.5,0,0],[0.75,0,0],[1,0,0],[0,1,0],[0.25,1,0],[0.5,1,0],[0.75,1,0],[1,1,0],[0,0.25,0],[0,0.5,0],[0,0.75,0],[1,0.25,0],[1,0.5,0],[1,0.75,0]];points=[[0,0,0],[0.25,0,0],[0.5,0,0],[0.75,0,0],[1,0,0],[0,1,0],[0.25,1,0],[0.5,1,0],[0.75,1,0],[1,1,0],[0,0.25,0],[0,0.5,0],[0,0.75,0],[1,0.25,0],[1,0.5,0],[1,0.75,0]];outlineConnect=0;fontColor=#232F3E;fillColor=#E7157B;strokeColor=#ffffff;dashed=0;verticalLabelPosition=bottom;verticalAlign=top;align=center;html=1;fontSize=12;fontStyle=0;aspect=fixed;shape=mxgraph.aws4.resourceIcon;resIcon=mxgraph.aws4.command_line_interface;" parent="1" vertex="1">
                    <mxGeometry x="344" y="353" width="43" height="43" as="geometry"/>
                </mxCell>
                <mxCell id="BXp47FkMODcyS4w8nFmD-12" style="edgeStyle=none;html=1;exitX=1;exitY=0.5;exitDx=0;exitDy=0;exitPerimeter=0;entryX=-0.04;entryY=0.404;entryDx=0;entryDy=0;entryPerimeter=0;" parent="1" source="BXp47FkMODcyS4w8nFmD-11" target="BXp47FkMODcyS4w8nFmD-7" edge="1">
                    <mxGeometry relative="1" as="geometry"/>
                </mxCell>
                <mxCell id="BXp47FkMODcyS4w8nFmD-13" style="edgeStyle=none;html=1;entryX=0.002;entryY=0.467;entryDx=0;entryDy=0;entryPerimeter=0;" parent="1" source="BXp47FkMODcyS4w8nFmD-8" target="BXp47FkMODcyS4w8nFmD-1" edge="1">
                    <mxGeometry relative="1" as="geometry"/>
                </mxCell>
                <mxCell id="BXp47FkMODcyS4w8nFmD-14" value="terraform.tfstate" style="sketch=0;outlineConnect=0;fontColor=#232F3E;gradientColor=none;fillColor=#232F3D;strokeColor=none;dashed=0;verticalLabelPosition=bottom;verticalAlign=top;align=center;html=1;fontSize=12;fontStyle=0;aspect=fixed;pointerEvents=1;shape=mxgraph.aws4.document;" parent="1" vertex="1">
                    <mxGeometry x="462.66" y="453" width="29.96" height="41" as="geometry"/>
                </mxCell>
            </root>
        </mxGraphModel>
    </diagram>
</mxfile>
